<svg width="190" height="55" viewBox="0 0 190 55" fill="none" xmlns="http://www.w3.org/2000/svg">
<path d="M15.5455 13.5455C15.4091 12.3939 14.8561 11.5 13.8864 10.8636C12.9167 10.2273 11.7273 9.90909 10.3182 9.90909C9.28788 9.90909 8.38636 10.0758 7.61364 10.4091C6.84849 10.7424 6.25 11.2008 5.81818 11.7841C5.39394 12.3674 5.18182 13.0303 5.18182 13.7727C5.18182 14.3939 5.32955 14.928 5.625 15.375C5.92803 15.8144 6.31439 16.1818 6.78409 16.4773C7.25379 16.7652 7.74621 17.0038 8.26136 17.1932C8.77652 17.375 9.25 17.5227 9.68182 17.6364L12.0455 18.2727C12.6515 18.4318 13.3258 18.6515 14.0682 18.9318C14.8182 19.2121 15.5341 19.5947 16.2159 20.0795C16.9053 20.5568 17.4735 21.1705 17.9205 21.9205C18.3674 22.6705 18.5909 23.5909 18.5909 24.6818C18.5909 25.9394 18.2614 27.0758 17.6023 28.0909C16.9508 29.1061 15.9962 29.9129 14.7386 30.5114C13.4886 31.1098 11.9697 31.4091 10.1818 31.4091C8.51515 31.4091 7.07197 31.1402 5.85227 30.6023C4.64015 30.0644 3.68561 29.3144 2.98864 28.3523C2.29924 27.3902 1.90909 26.2727 1.81818 25H4.72727C4.80303 25.8788 5.09848 26.6061 5.61364 27.1818C6.13636 27.75 6.79545 28.1742 7.59091 28.4545C8.39394 28.7273 9.25758 28.8636 10.1818 28.8636C11.2576 28.8636 12.2235 28.6894 13.0795 28.3409C13.9356 27.9848 14.6136 27.4924 15.1136 26.8636C15.6136 26.2273 15.8636 25.4848 15.8636 24.6364C15.8636 23.8636 15.6477 23.2348 15.2159 22.75C14.7841 22.2652 14.2159 21.8712 13.5114 21.5682C12.8068 21.2652 12.0455 21 11.2273 20.7727L8.36364 19.9545C6.54545 19.4318 5.10606 18.6856 4.04545 17.7159C2.98485 16.7462 2.45455 15.4773 2.45455 13.9091C2.45455 12.6061 2.80682 11.4697 3.51136 10.5C4.22348 9.52273 5.17803 8.76515 6.375 8.22727C7.57955 7.68182 8.92424 7.40909 10.4091 7.40909C11.9091 7.40909 13.2424 7.67803 14.4091 8.21591C15.5758 8.74621 16.5 9.47348 17.1818 10.3977C17.8712 11.322 18.2348 12.3712 18.2727 13.5455H15.5455ZM33.8608 23.8636V13.5455H36.5426V31H33.8608V28.0455H33.679C33.2699 28.9318 32.6335 29.6856 31.7699 30.3068C30.9063 30.9205 29.8153 31.2273 28.4972 31.2273C27.4062 31.2273 26.4366 30.9886 25.5881 30.5114C24.7396 30.0265 24.0729 29.2992 23.5881 28.3295C23.1032 27.3523 22.8608 26.1212 22.8608 24.6364V13.5455H25.5426V24.4545C25.5426 25.7273 25.8987 26.7424 26.6108 27.5C27.3305 28.2576 28.2472 28.6364 29.3608 28.6364C30.0275 28.6364 30.7055 28.4659 31.3949 28.125C32.0919 27.7841 32.6752 27.2614 33.1449 26.5568C33.6222 25.8523 33.8608 24.9545 33.8608 23.8636ZM53.8182 17.4545L51.4091 18.1364C51.2576 17.7348 51.0341 17.3447 50.7386 16.9659C50.4508 16.5795 50.0568 16.2614 49.5568 16.0114C49.0568 15.7614 48.4167 15.6364 47.6364 15.6364C46.5682 15.6364 45.678 15.8826 44.9659 16.375C44.2614 16.8598 43.9091 17.4773 43.9091 18.2273C43.9091 18.8939 44.1515 19.4205 44.6364 19.8068C45.1212 20.1932 45.8788 20.5152 46.9091 20.7727L49.5 21.4091C51.0606 21.7879 52.2235 22.3674 52.9886 23.1477C53.7538 23.9205 54.1364 24.9167 54.1364 26.1364C54.1364 27.1364 53.8485 28.0303 53.2727 28.8182C52.7045 29.6061 51.9091 30.2273 50.8864 30.6818C49.8636 31.1364 48.6742 31.3636 47.3182 31.3636C45.5379 31.3636 44.0644 30.9773 42.8977 30.2045C41.7311 29.4318 40.9924 28.303 40.6818 26.8182L43.2273 26.1818C43.4697 27.1212 43.928 27.8258 44.6023 28.2955C45.2841 28.7652 46.1742 29 47.2727 29C48.5227 29 49.5152 28.7348 50.25 28.2045C50.9924 27.6667 51.3636 27.0227 51.3636 26.2727C51.3636 25.6667 51.1515 25.1591 50.7273 24.75C50.303 24.3333 49.6515 24.0227 48.7727 23.8182L45.8636 23.1364C44.2652 22.7576 43.0909 22.1705 42.3409 21.375C41.5985 20.572 41.2273 19.5682 41.2273 18.3636C41.2273 17.3788 41.5038 16.5076 42.0568 15.75C42.6174 14.9924 43.3788 14.3977 44.3409 13.9659C45.3106 13.5341 46.4091 13.3182 47.6364 13.3182C49.3636 13.3182 50.7197 13.697 51.7045 14.4545C52.697 15.2121 53.4015 16.2121 53.8182 17.4545ZM65.7642 13.5455V15.8182H56.7188V13.5455H65.7642ZM59.3551 9.36364H62.0369V26C62.0369 26.7576 62.1468 27.3258 62.3665 27.7045C62.5938 28.0758 62.8816 28.3258 63.2301 28.4545C63.5862 28.5758 63.9612 28.6364 64.3551 28.6364C64.6506 28.6364 64.893 28.6212 65.0824 28.5909C65.2718 28.553 65.4233 28.5227 65.5369 28.5L66.0824 30.9091C65.9006 30.9773 65.6468 31.0455 65.321 31.1136C64.9953 31.1894 64.5824 31.2273 64.0824 31.2273C63.3248 31.2273 62.5824 31.0644 61.8551 30.7386C61.1354 30.4129 60.5369 29.9167 60.0597 29.25C59.59 28.5833 59.3551 27.7424 59.3551 26.7273V9.36364ZM74.9347 31.4091C73.8286 31.4091 72.8248 31.2008 71.9233 30.7841C71.0218 30.3598 70.3059 29.75 69.7756 28.9545C69.2453 28.1515 68.9801 27.1818 68.9801 26.0455C68.9801 25.0455 69.1771 24.2348 69.571 23.6136C69.965 22.9848 70.4915 22.4924 71.1506 22.1364C71.8097 21.7803 72.5369 21.5152 73.3324 21.3409C74.1354 21.1591 74.9422 21.0152 75.7528 20.9091C76.8134 20.7727 77.6733 20.6705 78.3324 20.6023C78.9991 20.5265 79.4839 20.4015 79.7869 20.2273C80.0975 20.053 80.2528 19.75 80.2528 19.3182V19.2273C80.2528 18.1061 79.946 17.2348 79.3324 16.6136C78.7263 15.9924 77.8059 15.6818 76.571 15.6818C75.2907 15.6818 74.2869 15.9621 73.5597 16.5227C72.8324 17.0833 72.321 17.6818 72.0256 18.3182L69.4801 17.4091C69.9347 16.3485 70.5407 15.5227 71.2983 14.9318C72.0634 14.3333 72.8968 13.9167 73.7983 13.6818C74.7074 13.4394 75.6013 13.3182 76.4801 13.3182C77.0407 13.3182 77.6847 13.3864 78.4119 13.5227C79.1468 13.6515 79.8551 13.9205 80.5369 14.3295C81.2263 14.7386 81.7983 15.3561 82.2528 16.1818C82.7074 17.0076 82.9347 18.1136 82.9347 19.5V31H80.2528V28.6364H80.1165C79.9347 29.0152 79.6316 29.4205 79.2074 29.8523C78.7831 30.2841 78.2188 30.6515 77.5142 30.9545C76.8097 31.2576 75.9498 31.4091 74.9347 31.4091ZM75.3438 29C76.4044 29 77.2983 28.7917 78.0256 28.375C78.7604 27.9583 79.3134 27.4205 79.6847 26.7614C80.0634 26.1023 80.2528 25.4091 80.2528 24.6818V22.2273C80.1392 22.3636 79.8892 22.4886 79.5028 22.6023C79.1241 22.7083 78.6847 22.803 78.1847 22.8864C77.6922 22.9621 77.2112 23.0303 76.7415 23.0909C76.2794 23.1439 75.9044 23.1894 75.6165 23.2273C74.9195 23.3182 74.268 23.4659 73.6619 23.6705C73.0634 23.8674 72.5786 24.1667 72.2074 24.5682C71.8438 24.9621 71.6619 25.5 71.6619 26.1818C71.6619 27.1136 72.0066 27.8182 72.696 28.2955C73.393 28.7652 74.2756 29 75.3438 29ZM87.8295 31V13.5455H90.5114V31H87.8295ZM89.1932 10.6364C88.6705 10.6364 88.2197 10.4583 87.8409 10.1023C87.4697 9.74621 87.2841 9.31818 87.2841 8.81818C87.2841 8.31818 87.4697 7.89015 87.8409 7.53409C88.2197 7.17803 88.6705 7 89.1932 7C89.7159 7 90.1629 7.17803 90.5341 7.53409C90.9129 7.89015 91.1023 8.31818 91.1023 8.81818C91.1023 9.31818 90.9129 9.74621 90.5341 10.1023C90.1629 10.4583 89.7159 10.6364 89.1932 10.6364ZM98.1051 20.5V31H95.4233V13.5455H98.0142V16.2727H98.2415C98.6506 15.3864 99.2718 14.6742 100.105 14.1364C100.938 13.5909 102.014 13.3182 103.332 13.3182C104.514 13.3182 105.548 13.5606 106.435 14.0455C107.321 14.5227 108.01 15.25 108.503 16.2273C108.995 17.197 109.241 18.4242 109.241 19.9091V31H106.56V20.0909C106.56 18.7197 106.204 17.6515 105.491 16.8864C104.779 16.1136 103.802 15.7273 102.56 15.7273C101.704 15.7273 100.938 15.9129 100.264 16.2841C99.5975 16.6553 99.071 17.197 98.6847 17.9091C98.2983 18.6212 98.1051 19.4848 98.1051 20.5Z" fill="#4A7C59"/>
<path d="M133.233 15H130.415C130.248 14.1894 129.956 13.4773 129.54 12.8636C129.131 12.25 128.631 11.7348 128.04 11.3182C127.456 10.8939 126.809 10.5758 126.097 10.3636C125.384 10.1515 124.642 10.0455 123.869 10.0455C122.46 10.0455 121.184 10.4015 120.04 11.1136C118.903 11.8258 117.998 12.875 117.324 14.2614C116.657 15.6477 116.324 17.3485 116.324 19.3636C116.324 21.3788 116.657 23.0795 117.324 24.4659C117.998 25.8523 118.903 26.9015 120.04 27.6136C121.184 28.3258 122.46 28.6818 123.869 28.6818C124.642 28.6818 125.384 28.5758 126.097 28.3636C126.809 28.1515 127.456 27.8371 128.04 27.4205C128.631 26.9962 129.131 26.4773 129.54 25.8636C129.956 25.2424 130.248 24.5303 130.415 23.7273H133.233C133.021 24.9167 132.634 25.9811 132.074 26.9205C131.513 27.8598 130.816 28.6591 129.983 29.3182C129.15 29.9697 128.214 30.4659 127.176 30.8068C126.146 31.1477 125.044 31.3182 123.869 31.3182C121.884 31.3182 120.119 30.8333 118.574 29.8636C117.028 28.8939 115.813 27.5152 114.926 25.7273C114.04 23.9394 113.597 21.8182 113.597 19.3636C113.597 16.9091 114.04 14.7879 114.926 13C115.813 11.2121 117.028 9.83333 118.574 8.86364C120.119 7.89394 121.884 7.40909 123.869 7.40909C125.044 7.40909 126.146 7.57954 127.176 7.92045C128.214 8.26136 129.15 8.76136 129.983 9.42045C130.816 10.072 131.513 10.8674 132.074 11.8068C132.634 12.7386 133.021 13.803 133.233 15ZM144.514 31.3636C142.938 31.3636 141.556 30.9886 140.366 30.2386C139.185 29.4886 138.26 28.4394 137.594 27.0909C136.935 25.7424 136.605 24.1667 136.605 22.3636C136.605 20.5455 136.935 18.9583 137.594 17.6023C138.26 16.2462 139.185 15.1932 140.366 14.4432C141.556 13.6932 142.938 13.3182 144.514 13.3182C146.09 13.3182 147.469 13.6932 148.651 14.4432C149.84 15.1932 150.764 16.2462 151.423 17.6023C152.09 18.9583 152.423 20.5455 152.423 22.3636C152.423 24.1667 152.09 25.7424 151.423 27.0909C150.764 28.4394 149.84 29.4886 148.651 30.2386C147.469 30.9886 146.09 31.3636 144.514 31.3636ZM144.514 28.9545C145.711 28.9545 146.696 28.6477 147.469 28.0341C148.241 27.4205 148.813 26.6136 149.185 25.6136C149.556 24.6136 149.741 23.5303 149.741 22.3636C149.741 21.197 149.556 20.1098 149.185 19.1023C148.813 18.0947 148.241 17.2803 147.469 16.6591C146.696 16.0379 145.711 15.7273 144.514 15.7273C143.317 15.7273 142.332 16.0379 141.56 16.6591C140.787 17.2803 140.215 18.0947 139.844 19.1023C139.473 20.1098 139.287 21.197 139.287 22.3636C139.287 23.5303 139.473 24.6136 139.844 25.6136C140.215 26.6136 140.787 27.4205 141.56 28.0341C142.332 28.6477 143.317 28.9545 144.514 28.9545ZM156.517 31V13.5455H159.108V16.1818H159.29C159.608 15.3182 160.184 14.6174 161.017 14.0795C161.85 13.5417 162.79 13.2727 163.835 13.2727C164.032 13.2727 164.278 13.2765 164.574 13.2841C164.869 13.2917 165.093 13.303 165.244 13.3182V16.0455C165.153 16.0227 164.945 15.9886 164.619 15.9432C164.301 15.8902 163.964 15.8636 163.608 15.8636C162.759 15.8636 162.002 16.0417 161.335 16.3977C160.676 16.7462 160.153 17.2311 159.767 17.8523C159.388 18.4659 159.199 19.1667 159.199 19.9545V31H156.517ZM175.21 31.3636C173.528 31.3636 172.078 30.9924 170.858 30.25C169.646 29.5 168.71 28.4545 168.051 27.1136C167.4 25.7652 167.074 24.197 167.074 22.4091C167.074 20.6212 167.4 19.0455 168.051 17.6818C168.71 16.3106 169.627 15.2424 170.801 14.4773C171.983 13.7045 173.362 13.3182 174.938 13.3182C175.847 13.3182 176.744 13.4697 177.631 13.7727C178.517 14.0758 179.324 14.5682 180.051 15.25C180.778 15.9242 181.358 16.8182 181.79 17.9318C182.222 19.0455 182.438 20.4167 182.438 22.0455V23.1818H168.983V20.8636H179.71C179.71 19.8788 179.513 19 179.119 18.2273C178.733 17.4545 178.18 16.8447 177.46 16.3977C176.748 15.9508 175.907 15.7273 174.938 15.7273C173.869 15.7273 172.945 15.9924 172.165 16.5227C171.392 17.0455 170.797 17.7273 170.381 18.5682C169.964 19.4091 169.756 20.3106 169.756 21.2727V22.8182C169.756 24.1364 169.983 25.2538 170.438 26.1705C170.9 27.0795 171.54 27.7727 172.358 28.25C173.176 28.7197 174.127 28.9545 175.21 28.9545C175.915 28.9545 176.551 28.8561 177.119 28.6591C177.695 28.4545 178.191 28.1515 178.608 27.75C179.025 27.3409 179.347 26.8333 179.574 26.2273L182.165 26.9545C181.892 27.8333 181.434 28.6061 180.79 29.2727C180.146 29.9318 179.35 30.447 178.403 30.8182C177.456 31.1818 176.392 31.3636 175.21 31.3636Z" fill="black"/>
<path d="M133.233 15H130.415C130.248 14.1894 129.956 13.4773 129.54 12.8636C129.131 12.25 128.631 11.7348 128.04 11.3182C127.456 10.8939 126.809 10.5758 126.097 10.3636C125.384 10.1515 124.642 10.0455 123.869 10.0455C122.46 10.0455 121.184 10.4015 120.04 11.1136C118.903 11.8258 117.998 12.875 117.324 14.2614C116.657 15.6477 116.324 17.3485 116.324 19.3636C116.324 21.3788 116.657 23.0795 117.324 24.4659C117.998 25.8523 118.903 26.9015 120.04 27.6136C121.184 28.3258 122.46 28.6818 123.869 28.6818C124.642 28.6818 125.384 28.5758 126.097 28.3636C126.809 28.1515 127.456 27.8371 128.04 27.4205C128.631 26.9962 129.131 26.4773 129.54 25.8636C129.956 25.2424 130.248 24.5303 130.415 23.7273H133.233C133.021 24.9167 132.634 25.9811 132.074 26.9205C131.513 27.8598 130.816 28.6591 129.983 29.3182C129.15 29.9697 128.214 30.4659 127.176 30.8068C126.146 31.1477 125.044 31.3182 123.869 31.3182C121.884 31.3182 120.119 30.8333 118.574 29.8636C117.028 28.8939 115.813 27.5152 114.926 25.7273C114.04 23.9394 113.597 21.8182 113.597 19.3636C113.597 16.9091 114.04 14.7879 114.926 13C115.813 11.2121 117.028 9.83333 118.574 8.86364C120.119 7.89394 121.884 7.40909 123.869 7.40909C125.044 7.40909 126.146 7.57954 127.176 7.92045C128.214 8.26136 129.15 8.76136 129.983 9.42045C130.816 10.072 131.513 10.8674 132.074 11.8068C132.634 12.7386 133.021 13.803 133.233 15ZM144.514 31.3636C142.938 31.3636 141.556 30.9886 140.366 30.2386C139.185 29.4886 138.26 28.4394 137.594 27.0909C136.935 25.7424 136.605 24.1667 136.605 22.3636C136.605 20.5455 136.935 18.9583 137.594 17.6023C138.26 16.2462 139.185 15.1932 140.366 14.4432C141.556 13.6932 142.938 13.3182 144.514 13.3182C146.09 13.3182 147.469 13.6932 148.651 14.4432C149.84 15.1932 150.764 16.2462 151.423 17.6023C152.09 18.9583 152.423 20.5455 152.423 22.3636C152.423 24.1667 152.09 25.7424 151.423 27.0909C150.764 28.4394 149.84 29.4886 148.651 30.2386C147.469 30.9886 146.09 31.3636 144.514 31.3636ZM144.514 28.9545C145.711 28.9545 146.696 28.6477 147.469 28.0341C148.241 27.4205 148.813 26.6136 149.185 25.6136C149.556 24.6136 149.741 23.5303 149.741 22.3636C149.741 21.197 149.556 20.1098 149.185 19.1023C148.813 18.0947 148.241 17.2803 147.469 16.6591C146.696 16.0379 145.711 15.7273 144.514 15.7273C143.317 15.7273 142.332 16.0379 141.56 16.6591C140.787 17.2803 140.215 18.0947 139.844 19.1023C139.473 20.1098 139.287 21.197 139.287 22.3636C139.287 23.5303 139.473 24.6136 139.844 25.6136C140.215 26.6136 140.787 27.4205 141.56 28.0341C142.332 28.6477 143.317 28.9545 144.514 28.9545ZM156.517 31V13.5455H159.108V16.1818H159.29C159.608 15.3182 160.184 14.6174 161.017 14.0795C161.85 13.5417 162.79 13.2727 163.835 13.2727C164.032 13.2727 164.278 13.2765 164.574 13.2841C164.869 13.2917 165.093 13.303 165.244 13.3182V16.0455C165.153 16.0227 164.945 15.9886 164.619 15.9432C164.301 15.8902 163.964 15.8636 163.608 15.8636C162.759 15.8636 162.002 16.0417 161.335 16.3977C160.676 16.7462 160.153 17.2311 159.767 17.8523C159.388 18.4659 159.199 19.1667 159.199 19.9545V31H156.517ZM175.21 31.3636C173.528 31.3636 172.078 30.9924 170.858 30.25C169.646 29.5 168.71 28.4545 168.051 27.1136C167.4 25.7652 167.074 24.197 167.074 22.4091C167.074 20.6212 167.4 19.0455 168.051 17.6818C168.71 16.3106 169.627 15.2424 170.801 14.4773C171.983 13.7045 173.362 13.3182 174.938 13.3182C175.847 13.3182 176.744 13.4697 177.631 13.7727C178.517 14.0758 179.324 14.5682 180.051 15.25C180.778 15.9242 181.358 16.8182 181.79 17.9318C182.222 19.0455 182.438 20.4167 182.438 22.0455V23.1818H168.983V20.8636H179.71C179.71 19.8788 179.513 19 179.119 18.2273C178.733 17.4545 178.18 16.8447 177.46 16.3977C176.748 15.9508 175.907 15.7273 174.938 15.7273C173.869 15.7273 172.945 15.9924 172.165 16.5227C171.392 17.0455 170.797 17.7273 170.381 18.5682C169.964 19.4091 169.756 20.3106 169.756 21.2727V22.8182C169.756 24.1364 169.983 25.2538 170.438 26.1705C170.9 27.0795 171.54 27.7727 172.358 28.25C173.176 28.7197 174.127 28.9545 175.21 28.9545C175.915 28.9545 176.551 28.8561 177.119 28.6591C177.695 28.4545 178.191 28.1515 178.608 27.75C179.025 27.3409 179.347 26.8333 179.574 26.2273L182.165 26.9545C181.892 27.8333 181.434 28.6061 180.79 29.2727C180.146 29.9318 179.35 30.447 178.403 30.8182C177.456 31.1818 176.392 31.3636 175.21 31.3636Z" fill="white"/>
<path d="M133.233 15H130.415C130.248 14.1894 129.956 13.4773 129.54 12.8636C129.131 12.25 128.631 11.7348 128.04 11.3182C127.456 10.8939 126.809 10.5758 126.097 10.3636C125.384 10.1515 124.642 10.0455 123.869 10.0455C122.46 10.0455 121.184 10.4015 120.04 11.1136C118.903 11.8258 117.998 12.875 117.324 14.2614C116.657 15.6477 116.324 17.3485 116.324 19.3636C116.324 21.3788 116.657 23.0795 117.324 24.4659C117.998 25.8523 118.903 26.9015 120.04 27.6136C121.184 28.3258 122.46 28.6818 123.869 28.6818C124.642 28.6818 125.384 28.5758 126.097 28.3636C126.809 28.1515 127.456 27.8371 128.04 27.4205C128.631 26.9962 129.131 26.4773 129.54 25.8636C129.956 25.2424 130.248 24.5303 130.415 23.7273H133.233C133.021 24.9167 132.634 25.9811 132.074 26.9205C131.513 27.8598 130.816 28.6591 129.983 29.3182C129.15 29.9697 128.214 30.4659 127.176 30.8068C126.146 31.1477 125.044 31.3182 123.869 31.3182C121.884 31.3182 120.119 30.8333 118.574 29.8636C117.028 28.8939 115.813 27.5152 114.926 25.7273C114.04 23.9394 113.597 21.8182 113.597 19.3636C113.597 16.9091 114.04 14.7879 114.926 13C115.813 11.2121 117.028 9.83333 118.574 8.86364C120.119 7.89394 121.884 7.40909 123.869 7.40909C125.044 7.40909 126.146 7.57954 127.176 7.92045C128.214 8.26136 129.15 8.76136 129.983 9.42045C130.816 10.072 131.513 10.8674 132.074 11.8068C132.634 12.7386 133.021 13.803 133.233 15ZM144.514 31.3636C142.938 31.3636 141.556 30.9886 140.366 30.2386C139.185 29.4886 138.26 28.4394 137.594 27.0909C136.935 25.7424 136.605 24.1667 136.605 22.3636C136.605 20.5455 136.935 18.9583 137.594 17.6023C138.26 16.2462 139.185 15.1932 140.366 14.4432C141.556 13.6932 142.938 13.3182 144.514 13.3182C146.09 13.3182 147.469 13.6932 148.651 14.4432C149.84 15.1932 150.764 16.2462 151.423 17.6023C152.09 18.9583 152.423 20.5455 152.423 22.3636C152.423 24.1667 152.09 25.7424 151.423 27.0909C150.764 28.4394 149.84 29.4886 148.651 30.2386C147.469 30.9886 146.09 31.3636 144.514 31.3636ZM144.514 28.9545C145.711 28.9545 146.696 28.6477 147.469 28.0341C148.241 27.4205 148.813 26.6136 149.185 25.6136C149.556 24.6136 149.741 23.5303 149.741 22.3636C149.741 21.197 149.556 20.1098 149.185 19.1023C148.813 18.0947 148.241 17.2803 147.469 16.6591C146.696 16.0379 145.711 15.7273 144.514 15.7273C143.317 15.7273 142.332 16.0379 141.56 16.6591C140.787 17.2803 140.215 18.0947 139.844 19.1023C139.473 20.1098 139.287 21.197 139.287 22.3636C139.287 23.5303 139.473 24.6136 139.844 25.6136C140.215 26.6136 140.787 27.4205 141.56 28.0341C142.332 28.6477 143.317 28.9545 144.514 28.9545ZM156.517 31V13.5455H159.108V16.1818H159.29C159.608 15.3182 160.184 14.6174 161.017 14.0795C161.85 13.5417 162.79 13.2727 163.835 13.2727C164.032 13.2727 164.278 13.2765 164.574 13.2841C164.869 13.2917 165.093 13.303 165.244 13.3182V16.0455C165.153 16.0227 164.945 15.9886 164.619 15.9432C164.301 15.8902 163.964 15.8636 163.608 15.8636C162.759 15.8636 162.002 16.0417 161.335 16.3977C160.676 16.7462 160.153 17.2311 159.767 17.8523C159.388 18.4659 159.199 19.1667 159.199 19.9545V31H156.517ZM175.21 31.3636C173.528 31.3636 172.078 30.9924 170.858 30.25C169.646 29.5 168.71 28.4545 168.051 27.1136C167.4 25.7652 167.074 24.197 167.074 22.4091C167.074 20.6212 167.4 19.0455 168.051 17.6818C168.71 16.3106 169.627 15.2424 170.801 14.4773C171.983 13.7045 173.362 13.3182 174.938 13.3182C175.847 13.3182 176.744 13.4697 177.631 13.7727C178.517 14.0758 179.324 14.5682 180.051 15.25C180.778 15.9242 181.358 16.8182 181.79 17.9318C182.222 19.0455 182.438 20.4167 182.438 22.0455V23.1818H168.983V20.8636H179.71C179.71 19.8788 179.513 19 179.119 18.2273C178.733 17.4545 178.18 16.8447 177.46 16.3977C176.748 15.9508 175.907 15.7273 174.938 15.7273C173.869 15.7273 172.945 15.9924 172.165 16.5227C171.392 17.0455 170.797 17.7273 170.381 18.5682C169.964 19.4091 169.756 20.3106 169.756 21.2727V22.8182C169.756 24.1364 169.983 25.2538 170.438 26.1705C170.9 27.0795 171.54 27.7727 172.358 28.25C173.176 28.7197 174.127 28.9545 175.21 28.9545C175.915 28.9545 176.551 28.8561 177.119 28.6591C177.695 28.4545 178.191 28.1515 178.608 27.75C179.025 27.3409 179.347 26.8333 179.574 26.2273L182.165 26.9545C181.892 27.8333 181.434 28.6061 180.79 29.2727C180.146 29.9318 179.35 30.447 178.403 30.8182C177.456 31.1818 176.392 31.3636 175.21 31.3636Z" fill="black"/>
<path d="M1.05682 46V37.2727H6.32386V38.2102H2.11364V41.1591H6.05114V42.0966H2.11364V45.0625H6.39205V46H1.05682ZM9.09801 42.0625V46H8.09233V39.4545H9.06392V40.4773H9.14915C9.30256 40.1449 9.53551 39.8778 9.84801 39.6761C10.1605 39.4716 10.5639 39.3693 11.0582 39.3693C11.5014 39.3693 11.8892 39.4602 12.2216 39.642C12.554 39.821 12.8125 40.0938 12.9972 40.4602C13.1818 40.8239 13.2741 41.2841 13.2741 41.8409V46H12.2685V41.9091C12.2685 41.3949 12.1349 40.9943 11.8679 40.7074C11.6009 40.4176 11.2344 40.2727 10.7685 40.2727C10.4474 40.2727 10.1605 40.3423 9.90767 40.4815C9.65767 40.6207 9.46023 40.8239 9.31534 41.0909C9.17045 41.358 9.09801 41.6818 9.09801 42.0625ZM20.2298 39.4545L17.8093 46H16.7866L14.3661 39.4545H15.457L17.2638 44.6705H17.332L19.1388 39.4545H20.2298ZM21.5572 46V39.4545H22.5629V46H21.5572ZM22.0685 38.3636C21.8725 38.3636 21.7035 38.2969 21.5614 38.1634C21.4222 38.0298 21.3526 37.8693 21.3526 37.6818C21.3526 37.4943 21.4222 37.3338 21.5614 37.2003C21.7035 37.0668 21.8725 37 22.0685 37C22.2646 37 22.4322 37.0668 22.5714 37.2003C22.7134 37.3338 22.7844 37.4943 22.7844 37.6818C22.7844 37.8693 22.7134 38.0298 22.5714 38.1634C22.4322 38.2969 22.2646 38.3636 22.0685 38.3636ZM24.4048 46V39.4545H25.3764V40.4432H25.4446C25.5639 40.1193 25.7798 39.8565 26.0923 39.6548C26.4048 39.4531 26.7571 39.3523 27.1491 39.3523C27.223 39.3523 27.3153 39.3537 27.4261 39.3565C27.5369 39.3594 27.6207 39.3636 27.6776 39.3693V40.392C27.6435 40.3835 27.5653 40.3707 27.4432 40.3537C27.3239 40.3338 27.1974 40.3239 27.0639 40.3239C26.7457 40.3239 26.4616 40.3906 26.2116 40.5241C25.9645 40.6548 25.7685 40.8366 25.6236 41.0696C25.4815 41.2997 25.4105 41.5625 25.4105 41.858V46H24.4048ZM31.3295 46.1364C30.7386 46.1364 30.2202 45.9957 29.7741 45.7145C29.331 45.4332 28.9844 45.0398 28.7344 44.5341C28.4872 44.0284 28.3636 43.4375 28.3636 42.7614C28.3636 42.0795 28.4872 41.4844 28.7344 40.9759C28.9844 40.4673 29.331 40.0724 29.7741 39.7912C30.2202 39.5099 30.7386 39.3693 31.3295 39.3693C31.9205 39.3693 32.4375 39.5099 32.8807 39.7912C33.3267 40.0724 33.6733 40.4673 33.9205 40.9759C34.1705 41.4844 34.2955 42.0795 34.2955 42.7614C34.2955 43.4375 34.1705 44.0284 33.9205 44.5341C33.6733 45.0398 33.3267 45.4332 32.8807 45.7145C32.4375 45.9957 31.9205 46.1364 31.3295 46.1364ZM31.3295 45.233C31.7784 45.233 32.1477 45.1179 32.4375 44.8878C32.7273 44.6577 32.9418 44.3551 33.081 43.9801C33.2202 43.6051 33.2898 43.1989 33.2898 42.7614C33.2898 42.3239 33.2202 41.9162 33.081 41.5384C32.9418 41.1605 32.7273 40.8551 32.4375 40.6222C32.1477 40.3892 31.7784 40.2727 31.3295 40.2727C30.8807 40.2727 30.5114 40.3892 30.2216 40.6222C29.9318 40.8551 29.7173 41.1605 29.5781 41.5384C29.4389 41.9162 29.3693 42.3239 29.3693 42.7614C29.3693 43.1989 29.4389 43.6051 29.5781 43.9801C29.7173 44.3551 29.9318 44.6577 30.2216 44.8878C30.5114 45.1179 30.8807 45.233 31.3295 45.233ZM36.8363 42.0625V46H35.8306V39.4545H36.8022V40.4773H36.8874C37.0408 40.1449 37.2738 39.8778 37.5863 39.6761C37.8988 39.4716 38.3022 39.3693 38.7965 39.3693C39.2397 39.3693 39.6275 39.4602 39.9599 39.642C40.2923 39.821 40.5508 40.0938 40.7354 40.4602C40.9201 40.8239 41.0124 41.2841 41.0124 41.8409V46H40.0067V41.9091C40.0067 41.3949 39.8732 40.9943 39.6062 40.7074C39.3391 40.4176 38.9727 40.2727 38.5067 40.2727C38.1857 40.2727 37.8988 40.3423 37.646 40.4815C37.396 40.6207 37.1985 40.8239 37.0536 41.0909C36.9087 41.358 36.8363 41.6818 36.8363 42.0625ZM42.8501 46V39.4545H43.8217V40.4773H43.907C44.0433 40.1278 44.2635 39.8565 44.5675 39.6634C44.8714 39.4673 45.2365 39.3693 45.6626 39.3693C46.0945 39.3693 46.4538 39.4673 46.7408 39.6634C47.0305 39.8565 47.2564 40.1278 47.4183 40.4773H47.4865C47.6541 40.1392 47.9055 39.8707 48.2408 39.6719C48.576 39.4702 48.978 39.3693 49.4467 39.3693C50.032 39.3693 50.5107 39.5526 50.8828 39.919C51.255 40.2827 51.4411 40.8494 51.4411 41.6193V46H50.4354V41.6193C50.4354 41.1364 50.3033 40.7912 50.0391 40.5838C49.7749 40.3764 49.4638 40.2727 49.1058 40.2727C48.6456 40.2727 48.2891 40.4119 48.0362 40.6903C47.7834 40.9659 47.657 41.3153 47.657 41.7386V46H46.6342V41.517C46.6342 41.1449 46.5135 40.8452 46.272 40.6179C46.0305 40.3878 45.7195 40.2727 45.3388 40.2727C45.0774 40.2727 44.8331 40.3423 44.6058 40.4815C44.3814 40.6207 44.1996 40.8139 44.0604 41.0611C43.924 41.3054 43.8558 41.5881 43.8558 41.9091V46H42.8501ZM56.0241 46.1364C55.3935 46.1364 54.8494 45.9972 54.392 45.7188C53.9375 45.4375 53.5866 45.0455 53.3395 44.5426C53.0952 44.0369 52.973 43.4489 52.973 42.7784C52.973 42.108 53.0952 41.517 53.3395 41.0057C53.5866 40.4915 53.9304 40.0909 54.3707 39.804C54.8139 39.5142 55.331 39.3693 55.9219 39.3693C56.2628 39.3693 56.5994 39.4261 56.9318 39.5398C57.2642 39.6534 57.5668 39.8381 57.8395 40.0938C58.1122 40.3466 58.3295 40.6818 58.4915 41.0994C58.6534 41.517 58.7344 42.0312 58.7344 42.642V43.0682H53.6889V42.1989H57.7116C57.7116 41.8295 57.6378 41.5 57.4901 41.2102C57.3452 40.9205 57.1378 40.6918 56.8679 40.5241C56.6009 40.3565 56.2855 40.2727 55.9219 40.2727C55.5213 40.2727 55.1747 40.3722 54.8821 40.571C54.5923 40.767 54.3693 41.0227 54.2131 41.3381C54.0568 41.6534 53.9787 41.9915 53.9787 42.3523V42.9318C53.9787 43.4261 54.0639 43.8452 54.2344 44.1889C54.4077 44.5298 54.6477 44.7898 54.9545 44.9688C55.2614 45.1449 55.6179 45.233 56.0241 45.233C56.2884 45.233 56.527 45.196 56.7401 45.1222C56.956 45.0455 57.142 44.9318 57.2983 44.7812C57.4545 44.6278 57.5753 44.4375 57.6605 44.2102L58.6321 44.483C58.5298 44.8125 58.358 45.1023 58.1165 45.3523C57.875 45.5994 57.5767 45.7926 57.2216 45.9318C56.8665 46.0682 56.4673 46.1364 56.0241 46.1364ZM61.2699 42.0625V46H60.2642V39.4545H61.2358V40.4773H61.321C61.4744 40.1449 61.7074 39.8778 62.0199 39.6761C62.3324 39.4716 62.7358 39.3693 63.2301 39.3693C63.6733 39.3693 64.0611 39.4602 64.3935 39.642C64.7259 39.821 64.9844 40.0938 65.169 40.4602C65.3537 40.8239 65.446 41.2841 65.446 41.8409V46H64.4403V41.9091C64.4403 41.3949 64.3068 40.9943 64.0398 40.7074C63.7727 40.4176 63.4063 40.2727 62.9403 40.2727C62.6193 40.2727 62.3324 40.3423 62.0795 40.4815C61.8295 40.6207 61.6321 40.8239 61.4872 41.0909C61.3423 41.358 61.2699 41.6818 61.2699 42.0625ZM70.1303 39.4545V40.3068H66.7383V39.4545H70.1303ZM67.7269 37.8864H68.7326V44.125C68.7326 44.4091 68.7738 44.6222 68.8562 44.7642C68.9414 44.9034 69.0494 44.9972 69.18 45.0455C69.3136 45.0909 69.4542 45.1136 69.6019 45.1136C69.7127 45.1136 69.8036 45.108 69.8746 45.0966C69.9457 45.0824 70.0025 45.071 70.0451 45.0625L70.2496 45.9659C70.1815 45.9915 70.0863 46.017 69.9641 46.0426C69.842 46.071 69.6871 46.0852 69.4996 46.0852C69.2156 46.0852 68.9371 46.0241 68.6644 45.902C68.3945 45.7798 68.1701 45.5938 67.9911 45.3438C67.815 45.0938 67.7269 44.7784 67.7269 44.3977V37.8864ZM73.5692 46.1534C73.1545 46.1534 72.7781 46.0753 72.44 45.919C72.1019 45.7599 71.8335 45.5312 71.6346 45.233C71.4357 44.9318 71.3363 44.5682 71.3363 44.142C71.3363 43.767 71.4102 43.4631 71.5579 43.2301C71.7056 42.9943 71.9031 42.8097 72.1502 42.6761C72.3974 42.5426 72.6701 42.4432 72.9684 42.3778C73.2695 42.3097 73.5721 42.2557 73.8761 42.2159C74.2738 42.1648 74.5962 42.1264 74.8434 42.1009C75.0934 42.0724 75.2752 42.0256 75.3888 41.9602C75.5053 41.8949 75.5636 41.7812 75.5636 41.6193V41.5852C75.5636 41.1648 75.4485 40.8381 75.2184 40.6051C74.9911 40.3722 74.646 40.2557 74.1829 40.2557C73.7028 40.2557 73.3263 40.3608 73.0536 40.571C72.7809 40.7812 72.5891 41.0057 72.4783 41.2443L71.5238 40.9034C71.6942 40.5057 71.9215 40.196 72.2056 39.9744C72.4925 39.75 72.805 39.5937 73.1431 39.5057C73.484 39.4148 73.8192 39.3693 74.1488 39.3693C74.359 39.3693 74.6005 39.3949 74.8732 39.446C75.1488 39.4943 75.4144 39.5952 75.6701 39.7486C75.9286 39.902 76.1431 40.1335 76.3136 40.4432C76.484 40.7528 76.5692 41.1676 76.5692 41.6875V46H75.5636V45.1136H75.5124C75.4442 45.2557 75.3306 45.4077 75.1715 45.5696C75.0124 45.7315 74.8008 45.8693 74.5366 45.983C74.2724 46.0966 73.9499 46.1534 73.5692 46.1534ZM73.7227 45.25C74.1204 45.25 74.4556 45.1719 74.7283 45.0156C75.0039 44.8594 75.2113 44.6577 75.3505 44.4105C75.4925 44.1634 75.5636 43.9034 75.5636 43.6307V42.7102C75.521 42.7614 75.4272 42.8082 75.2823 42.8509C75.1403 42.8906 74.9755 42.9261 74.788 42.9574C74.6033 42.9858 74.4229 43.0114 74.2468 43.0341C74.0735 43.054 73.9329 43.071 73.8249 43.0852C73.5636 43.1193 73.3192 43.1747 73.092 43.2514C72.8675 43.3253 72.6857 43.4375 72.5465 43.5881C72.4102 43.7358 72.342 43.9375 72.342 44.1932C72.342 44.5426 72.4712 44.8068 72.7298 44.9858C72.9911 45.1619 73.3221 45.25 73.7227 45.25ZM79.4105 37.2727V46H78.4048V37.2727H79.4105ZM89.5366 39.4545C89.4854 39.0227 89.2781 38.6875 88.9144 38.4489C88.5508 38.2102 88.1048 38.0909 87.5763 38.0909C87.19 38.0909 86.8519 38.1534 86.5621 38.2784C86.2752 38.4034 86.0508 38.5753 85.8888 38.794C85.7298 39.0128 85.6502 39.2614 85.6502 39.5398C85.6502 39.7727 85.7056 39.973 85.8164 40.1406C85.93 40.3054 86.0749 40.4432 86.2511 40.554C86.4272 40.6619 86.6119 40.7514 86.805 40.8224C86.9982 40.8906 87.1758 40.946 87.3377 40.9886L88.2241 41.2273C88.4513 41.2869 88.7042 41.3693 88.9826 41.4744C89.2638 41.5795 89.5323 41.723 89.788 41.9048C90.0465 42.0838 90.2596 42.3139 90.4272 42.5952C90.5948 42.8764 90.6786 43.2216 90.6786 43.6307C90.6786 44.1023 90.555 44.5284 90.3079 44.9091C90.0636 45.2898 89.7056 45.5923 89.234 45.8168C88.7653 46.0412 88.1957 46.1534 87.5252 46.1534C86.9002 46.1534 86.359 46.0526 85.9016 45.8509C85.4471 45.6491 85.0891 45.3679 84.8278 45.0071C84.5692 44.6463 84.4229 44.2273 84.3888 43.75H85.4798C85.5082 44.0795 85.619 44.3523 85.8121 44.5682C86.0082 44.7812 86.2553 44.9403 86.5536 45.0455C86.8548 45.1477 87.1786 45.1989 87.5252 45.1989C87.9286 45.1989 88.2908 45.1335 88.6119 45.0028C88.9329 44.8693 89.1871 44.6847 89.3746 44.4489C89.5621 44.2102 89.6559 43.9318 89.6559 43.6136C89.6559 43.3239 89.5749 43.0881 89.413 42.9062C89.2511 42.7244 89.038 42.5767 88.7738 42.4631C88.5096 42.3494 88.2241 42.25 87.9173 42.1648L86.8434 41.858C86.1616 41.6619 85.6218 41.3821 85.2241 41.0185C84.8263 40.6548 84.6275 40.179 84.6275 39.5909C84.6275 39.1023 84.7596 38.6761 85.0238 38.3125C85.2908 37.946 85.6488 37.6619 86.0977 37.4602C86.5494 37.2557 87.0536 37.1534 87.6104 37.1534C88.1729 37.1534 88.6729 37.2543 89.1104 37.456C89.5479 37.6548 89.8945 37.9276 90.1502 38.2741C90.4087 38.6207 90.5451 39.0142 90.5593 39.4545H89.5366ZM94.9389 46.1364C94.348 46.1364 93.8295 45.9957 93.3835 45.7145C92.9403 45.4332 92.5938 45.0398 92.3438 44.5341C92.0966 44.0284 91.973 43.4375 91.973 42.7614C91.973 42.0795 92.0966 41.4844 92.3438 40.9759C92.5938 40.4673 92.9403 40.0724 93.3835 39.7912C93.8295 39.5099 94.348 39.3693 94.9389 39.3693C95.5298 39.3693 96.0469 39.5099 96.4901 39.7912C96.9361 40.0724 97.2827 40.4673 97.5298 40.9759C97.7798 41.4844 97.9048 42.0795 97.9048 42.7614C97.9048 43.4375 97.7798 44.0284 97.5298 44.5341C97.2827 45.0398 96.9361 45.4332 96.4901 45.7145C96.0469 45.9957 95.5298 46.1364 94.9389 46.1364ZM94.9389 45.233C95.3878 45.233 95.7571 45.1179 96.0469 44.8878C96.3366 44.6577 96.5511 44.3551 96.6903 43.9801C96.8295 43.6051 96.8991 43.1989 96.8991 42.7614C96.8991 42.3239 96.8295 41.9162 96.6903 41.5384C96.5511 41.1605 96.3366 40.8551 96.0469 40.6222C95.7571 40.3892 95.3878 40.2727 94.9389 40.2727C94.4901 40.2727 94.1207 40.3892 93.831 40.6222C93.5412 40.8551 93.3267 41.1605 93.1875 41.5384C93.0483 41.9162 92.9787 42.3239 92.9787 42.7614C92.9787 43.1989 93.0483 43.6051 93.1875 43.9801C93.3267 44.3551 93.5412 44.6577 93.831 44.8878C94.1207 45.1179 94.4901 45.233 94.9389 45.233ZM100.446 37.2727V46H99.44V37.2727H100.446ZM106.413 43.3239V39.4545H107.418V46H106.413V44.892H106.344C106.191 45.2244 105.952 45.5071 105.629 45.7401C105.305 45.9702 104.896 46.0852 104.401 46.0852C103.992 46.0852 103.629 45.9957 103.31 45.8168C102.992 45.6349 102.742 45.3622 102.56 44.9986C102.379 44.6321 102.288 44.1705 102.288 43.6136V39.4545H103.293V43.5455C103.293 44.0227 103.427 44.4034 103.694 44.6875C103.964 44.9716 104.308 45.1136 104.725 45.1136C104.975 45.1136 105.229 45.0497 105.488 44.9219C105.749 44.794 105.968 44.598 106.144 44.3338C106.323 44.0696 106.413 43.733 106.413 43.3239ZM112.107 39.4545V40.3068H108.715V39.4545H112.107ZM109.703 37.8864H110.709V44.125C110.709 44.4091 110.75 44.6222 110.833 44.7642C110.918 44.9034 111.026 44.9972 111.157 45.0455C111.29 45.0909 111.431 45.1136 111.578 45.1136C111.689 45.1136 111.78 45.108 111.851 45.0966C111.922 45.0824 111.979 45.071 112.022 45.0625L112.226 45.9659C112.158 45.9915 112.063 46.017 111.941 46.0426C111.819 46.071 111.664 46.0852 111.476 46.0852C111.192 46.0852 110.914 46.0241 110.641 45.902C110.371 45.7798 110.147 45.5938 109.968 45.3438C109.792 45.0938 109.703 44.7784 109.703 44.3977V37.8864ZM113.62 46V39.4545H114.625V46H113.62ZM114.131 38.3636C113.935 38.3636 113.766 38.2969 113.624 38.1634C113.485 38.0298 113.415 37.8693 113.415 37.6818C113.415 37.4943 113.485 37.3338 113.624 37.2003C113.766 37.0668 113.935 37 114.131 37C114.327 37 114.495 37.0668 114.634 37.2003C114.776 37.3338 114.847 37.4943 114.847 37.6818C114.847 37.8693 114.776 38.0298 114.634 38.1634C114.495 38.2969 114.327 38.3636 114.131 38.3636ZM119.126 46.1364C118.536 46.1364 118.017 45.9957 117.571 45.7145C117.128 45.4332 116.781 45.0398 116.531 44.5341C116.284 44.0284 116.161 43.4375 116.161 42.7614C116.161 42.0795 116.284 41.4844 116.531 40.9759C116.781 40.4673 117.128 40.0724 117.571 39.7912C118.017 39.5099 118.536 39.3693 119.126 39.3693C119.717 39.3693 120.234 39.5099 120.678 39.7912C121.124 40.0724 121.47 40.4673 121.717 40.9759C121.967 41.4844 122.092 42.0795 122.092 42.7614C122.092 43.4375 121.967 44.0284 121.717 44.5341C121.47 45.0398 121.124 45.4332 120.678 45.7145C120.234 45.9957 119.717 46.1364 119.126 46.1364ZM119.126 45.233C119.575 45.233 119.945 45.1179 120.234 44.8878C120.524 44.6577 120.739 44.3551 120.878 43.9801C121.017 43.6051 121.087 43.1989 121.087 42.7614C121.087 42.3239 121.017 41.9162 120.878 41.5384C120.739 41.1605 120.524 40.8551 120.234 40.6222C119.945 40.3892 119.575 40.2727 119.126 40.2727C118.678 40.2727 118.308 40.3892 118.018 40.6222C117.729 40.8551 117.514 41.1605 117.375 41.5384C117.236 41.9162 117.166 42.3239 117.166 42.7614C117.166 43.1989 117.236 43.6051 117.375 43.9801C117.514 44.3551 117.729 44.6577 118.018 44.8878C118.308 45.1179 118.678 45.233 119.126 45.233ZM124.633 42.0625V46H123.627V39.4545H124.599V40.4773H124.684C124.838 40.1449 125.071 39.8778 125.383 39.6761C125.696 39.4716 126.099 39.3693 126.593 39.3693C127.037 39.3693 127.424 39.4602 127.757 39.642C128.089 39.821 128.348 40.0938 128.532 40.4602C128.717 40.8239 128.809 41.2841 128.809 41.8409V46H127.804V41.9091C127.804 41.3949 127.67 40.9943 127.403 40.7074C127.136 40.4176 126.77 40.2727 126.304 40.2727C125.983 40.2727 125.696 40.3423 125.443 40.4815C125.193 40.6207 124.995 40.8239 124.85 41.0909C124.706 41.358 124.633 41.6818 124.633 42.0625ZM135.283 40.9205L134.38 41.1761C134.323 41.0256 134.239 40.8793 134.129 40.7372C134.021 40.5923 133.873 40.473 133.685 40.3793C133.498 40.2855 133.258 40.2386 132.965 40.2386C132.565 40.2386 132.231 40.331 131.964 40.5156C131.7 40.6974 131.567 40.929 131.567 41.2102C131.567 41.4602 131.658 41.6577 131.84 41.8026C132.022 41.9474 132.306 42.0682 132.692 42.1648L133.664 42.4034C134.249 42.5455 134.685 42.7628 134.972 43.0554C135.259 43.3452 135.403 43.7187 135.403 44.1761C135.403 44.5511 135.295 44.8864 135.079 45.1818C134.866 45.4773 134.567 45.7102 134.184 45.8807C133.8 46.0511 133.354 46.1364 132.846 46.1364C132.178 46.1364 131.626 45.9915 131.188 45.7017C130.751 45.4119 130.474 44.9886 130.357 44.4318L131.312 44.1932C131.403 44.5455 131.575 44.8097 131.827 44.9858C132.083 45.1619 132.417 45.25 132.829 45.25C133.298 45.25 133.67 45.1506 133.945 44.9517C134.224 44.75 134.363 44.5085 134.363 44.2273C134.363 44 134.283 43.8097 134.124 43.6562C133.965 43.5 133.721 43.3835 133.391 43.3068L132.3 43.0511C131.701 42.9091 131.261 42.6889 130.979 42.3906C130.701 42.0895 130.562 41.7131 130.562 41.2614C130.562 40.892 130.665 40.5653 130.873 40.2812C131.083 39.9972 131.369 39.7741 131.729 39.6122C132.093 39.4503 132.505 39.3693 132.965 39.3693C133.613 39.3693 134.121 39.5114 134.491 39.7955C134.863 40.0795 135.127 40.4545 135.283 40.9205ZM140.428 46V37.2727H143.377C144.061 37.2727 144.621 37.3963 145.056 37.6435C145.493 37.8878 145.817 38.2188 146.027 38.6364C146.238 39.054 146.343 39.5199 146.343 40.0341C146.343 40.5483 146.238 41.0156 146.027 41.4361C145.82 41.8565 145.499 42.1918 145.064 42.4418C144.63 42.6889 144.073 42.8125 143.394 42.8125H141.28V41.875H143.36C143.828 41.875 144.205 41.794 144.489 41.6321C144.773 41.4702 144.979 41.2514 145.107 40.9759C145.238 40.6974 145.303 40.3835 145.303 40.0341C145.303 39.6847 145.238 39.3722 145.107 39.0966C144.979 38.821 144.772 38.6051 144.485 38.4489C144.198 38.2898 143.817 38.2102 143.343 38.2102H141.485V46H140.428ZM153.261 39.4545L150.841 46H149.818L147.397 39.4545H148.488L150.295 44.6705H150.363L152.17 39.4545H153.261ZM157.435 39.4545V40.3068H154.043V39.4545H157.435ZM155.032 37.8864H156.037V44.125C156.037 44.4091 156.078 44.6222 156.161 44.7642C156.246 44.9034 156.354 44.9972 156.485 45.0455C156.618 45.0909 156.759 45.1136 156.907 45.1136C157.017 45.1136 157.108 45.108 157.179 45.0966C157.25 45.0824 157.307 45.071 157.35 45.0625L157.554 45.9659C157.486 45.9915 157.391 46.017 157.269 46.0426C157.147 46.071 156.992 46.0852 156.804 46.0852C156.52 46.0852 156.242 46.0241 155.969 45.902C155.699 45.7798 155.475 45.5938 155.296 45.3438C155.12 45.0938 155.032 44.7784 155.032 44.3977V37.8864ZM159.681 46.0682C159.471 46.0682 159.29 45.9929 159.14 45.8423C158.989 45.6918 158.914 45.5114 158.914 45.3011C158.914 45.0909 158.989 44.9105 159.14 44.7599C159.29 44.6094 159.471 44.5341 159.681 44.5341C159.891 44.5341 160.071 44.6094 160.222 44.7599C160.373 44.9105 160.448 45.0909 160.448 45.3011C160.448 45.4403 160.412 45.5682 160.341 45.6847C160.273 45.8011 160.181 45.8949 160.064 45.9659C159.951 46.0341 159.823 46.0682 159.681 46.0682ZM165.764 46V37.2727H166.821V45.0625H170.877V46H165.764ZM174.955 39.4545V40.3068H171.562V39.4545H174.955ZM172.551 37.8864H173.557V44.125C173.557 44.4091 173.598 44.6222 173.68 44.7642C173.766 44.9034 173.874 44.9972 174.004 45.0455C174.138 45.0909 174.278 45.1136 174.426 45.1136C174.537 45.1136 174.628 45.108 174.699 45.0966C174.77 45.0824 174.827 45.071 174.869 45.0625L175.074 45.9659C175.006 45.9915 174.911 46.017 174.788 46.0426C174.666 46.071 174.511 46.0852 174.324 46.0852C174.04 46.0852 173.761 46.0241 173.489 45.902C173.219 45.7798 172.994 45.5938 172.815 45.3438C172.639 45.0938 172.551 44.7784 172.551 44.3977V37.8864ZM178.869 46.1364C178.323 46.1364 177.842 45.9986 177.424 45.723C177.006 45.4446 176.68 45.0526 176.444 44.5469C176.208 44.0384 176.09 43.4375 176.09 42.7443C176.09 42.0568 176.208 41.4602 176.444 40.9545C176.68 40.4489 177.008 40.0582 177.428 39.7827C177.849 39.5071 178.335 39.3693 178.886 39.3693C179.312 39.3693 179.648 39.4403 179.896 39.5824C180.146 39.7216 180.336 39.8807 180.467 40.0597C180.6 40.2358 180.704 40.3807 180.778 40.4943H180.863V37.2727H181.869V46H180.897V44.9943H180.778C180.704 45.1136 180.599 45.2642 180.462 45.446C180.326 45.625 180.131 45.7855 179.879 45.9276C179.626 46.0668 179.289 46.1364 178.869 46.1364ZM179.005 45.233C179.408 45.233 179.749 45.1278 180.028 44.9176C180.306 44.7045 180.518 44.4105 180.663 44.0355C180.808 43.6577 180.88 43.2216 180.88 42.7273C180.88 42.2386 180.809 41.8111 180.667 41.4446C180.525 41.0753 180.315 40.7884 180.036 40.5838C179.758 40.3764 179.414 40.2727 179.005 40.2727C178.579 40.2727 178.224 40.3821 177.94 40.6009C177.658 40.8168 177.447 41.1108 177.305 41.483C177.165 41.8523 177.096 42.267 177.096 42.7273C177.096 43.1932 177.167 43.6165 177.309 43.9972C177.454 44.375 177.667 44.6761 177.948 44.9006C178.232 45.1222 178.585 45.233 179.005 45.233ZM184.583 46.0682C184.373 46.0682 184.192 45.9929 184.042 45.8423C183.891 45.6918 183.816 45.5114 183.816 45.3011C183.816 45.0909 183.891 44.9105 184.042 44.7599C184.192 44.6094 184.373 44.5341 184.583 44.5341C184.793 44.5341 184.974 44.6094 185.124 44.7599C185.275 44.9105 185.35 45.0909 185.35 45.3011C185.35 45.4403 185.315 45.5682 185.244 45.6847C185.175 45.8011 185.083 45.8949 184.967 45.9659C184.853 46.0341 184.725 46.0682 184.583 46.0682Z" fill="white"/>
<path d="M1.05682 46V37.2727H6.32386V38.2102H2.11364V41.1591H6.05114V42.0966H2.11364V45.0625H6.39205V46H1.05682ZM9.09801 42.0625V46H8.09233V39.4545H9.06392V40.4773H9.14915C9.30256 40.1449 9.53551 39.8778 9.84801 39.6761C10.1605 39.4716 10.5639 39.3693 11.0582 39.3693C11.5014 39.3693 11.8892 39.4602 12.2216 39.642C12.554 39.821 12.8125 40.0938 12.9972 40.4602C13.1818 40.8239 13.2741 41.2841 13.2741 41.8409V46H12.2685V41.9091C12.2685 41.3949 12.1349 40.9943 11.8679 40.7074C11.6009 40.4176 11.2344 40.2727 10.7685 40.2727C10.4474 40.2727 10.1605 40.3423 9.90767 40.4815C9.65767 40.6207 9.46023 40.8239 9.31534 41.0909C9.17045 41.358 9.09801 41.6818 9.09801 42.0625ZM20.2298 39.4545L17.8093 46H16.7866L14.3661 39.4545H15.457L17.2638 44.6705H17.332L19.1388 39.4545H20.2298ZM21.5572 46V39.4545H22.5629V46H21.5572ZM22.0685 38.3636C21.8725 38.3636 21.7035 38.2969 21.5614 38.1634C21.4222 38.0298 21.3526 37.8693 21.3526 37.6818C21.3526 37.4943 21.4222 37.3338 21.5614 37.2003C21.7035 37.0668 21.8725 37 22.0685 37C22.2646 37 22.4322 37.0668 22.5714 37.2003C22.7134 37.3338 22.7844 37.4943 22.7844 37.6818C22.7844 37.8693 22.7134 38.0298 22.5714 38.1634C22.4322 38.2969 22.2646 38.3636 22.0685 38.3636ZM24.4048 46V39.4545H25.3764V40.4432H25.4446C25.5639 40.1193 25.7798 39.8565 26.0923 39.6548C26.4048 39.4531 26.7571 39.3523 27.1491 39.3523C27.223 39.3523 27.3153 39.3537 27.4261 39.3565C27.5369 39.3594 27.6207 39.3636 27.6776 39.3693V40.392C27.6435 40.3835 27.5653 40.3707 27.4432 40.3537C27.3239 40.3338 27.1974 40.3239 27.0639 40.3239C26.7457 40.3239 26.4616 40.3906 26.2116 40.5241C25.9645 40.6548 25.7685 40.8366 25.6236 41.0696C25.4815 41.2997 25.4105 41.5625 25.4105 41.858V46H24.4048ZM31.3295 46.1364C30.7386 46.1364 30.2202 45.9957 29.7741 45.7145C29.331 45.4332 28.9844 45.0398 28.7344 44.5341C28.4872 44.0284 28.3636 43.4375 28.3636 42.7614C28.3636 42.0795 28.4872 41.4844 28.7344 40.9759C28.9844 40.4673 29.331 40.0724 29.7741 39.7912C30.2202 39.5099 30.7386 39.3693 31.3295 39.3693C31.9205 39.3693 32.4375 39.5099 32.8807 39.7912C33.3267 40.0724 33.6733 40.4673 33.9205 40.9759C34.1705 41.4844 34.2955 42.0795 34.2955 42.7614C34.2955 43.4375 34.1705 44.0284 33.9205 44.5341C33.6733 45.0398 33.3267 45.4332 32.8807 45.7145C32.4375 45.9957 31.9205 46.1364 31.3295 46.1364ZM31.3295 45.233C31.7784 45.233 32.1477 45.1179 32.4375 44.8878C32.7273 44.6577 32.9418 44.3551 33.081 43.9801C33.2202 43.6051 33.2898 43.1989 33.2898 42.7614C33.2898 42.3239 33.2202 41.9162 33.081 41.5384C32.9418 41.1605 32.7273 40.8551 32.4375 40.6222C32.1477 40.3892 31.7784 40.2727 31.3295 40.2727C30.8807 40.2727 30.5114 40.3892 30.2216 40.6222C29.9318 40.8551 29.7173 41.1605 29.5781 41.5384C29.4389 41.9162 29.3693 42.3239 29.3693 42.7614C29.3693 43.1989 29.4389 43.6051 29.5781 43.9801C29.7173 44.3551 29.9318 44.6577 30.2216 44.8878C30.5114 45.1179 30.8807 45.233 31.3295 45.233ZM36.8363 42.0625V46H35.8306V39.4545H36.8022V40.4773H36.8874C37.0408 40.1449 37.2738 39.8778 37.5863 39.6761C37.8988 39.4716 38.3022 39.3693 38.7965 39.3693C39.2397 39.3693 39.6275 39.4602 39.9599 39.642C40.2923 39.821 40.5508 40.0938 40.7354 40.4602C40.9201 40.8239 41.0124 41.2841 41.0124 41.8409V46H40.0067V41.9091C40.0067 41.3949 39.8732 40.9943 39.6062 40.7074C39.3391 40.4176 38.9727 40.2727 38.5067 40.2727C38.1857 40.2727 37.8988 40.3423 37.646 40.4815C37.396 40.6207 37.1985 40.8239 37.0536 41.0909C36.9087 41.358 36.8363 41.6818 36.8363 42.0625ZM42.8501 46V39.4545H43.8217V40.4773H43.907C44.0433 40.1278 44.2635 39.8565 44.5675 39.6634C44.8714 39.4673 45.2365 39.3693 45.6626 39.3693C46.0945 39.3693 46.4538 39.4673 46.7408 39.6634C47.0305 39.8565 47.2564 40.1278 47.4183 40.4773H47.4865C47.6541 40.1392 47.9055 39.8707 48.2408 39.6719C48.576 39.4702 48.978 39.3693 49.4467 39.3693C50.032 39.3693 50.5107 39.5526 50.8828 39.919C51.255 40.2827 51.4411 40.8494 51.4411 41.6193V46H50.4354V41.6193C50.4354 41.1364 50.3033 40.7912 50.0391 40.5838C49.7749 40.3764 49.4638 40.2727 49.1058 40.2727C48.6456 40.2727 48.2891 40.4119 48.0362 40.6903C47.7834 40.9659 47.657 41.3153 47.657 41.7386V46H46.6342V41.517C46.6342 41.1449 46.5135 40.8452 46.272 40.6179C46.0305 40.3878 45.7195 40.2727 45.3388 40.2727C45.0774 40.2727 44.8331 40.3423 44.6058 40.4815C44.3814 40.6207 44.1996 40.8139 44.0604 41.0611C43.924 41.3054 43.8558 41.5881 43.8558 41.9091V46H42.8501ZM56.0241 46.1364C55.3935 46.1364 54.8494 45.9972 54.392 45.7188C53.9375 45.4375 53.5866 45.0455 53.3395 44.5426C53.0952 44.0369 52.973 43.4489 52.973 42.7784C52.973 42.108 53.0952 41.517 53.3395 41.0057C53.5866 40.4915 53.9304 40.0909 54.3707 39.804C54.8139 39.5142 55.331 39.3693 55.9219 39.3693C56.2628 39.3693 56.5994 39.4261 56.9318 39.5398C57.2642 39.6534 57.5668 39.8381 57.8395 40.0938C58.1122 40.3466 58.3295 40.6818 58.4915 41.0994C58.6534 41.517 58.7344 42.0312 58.7344 42.642V43.0682H53.6889V42.1989H57.7116C57.7116 41.8295 57.6378 41.5 57.4901 41.2102C57.3452 40.9205 57.1378 40.6918 56.8679 40.5241C56.6009 40.3565 56.2855 40.2727 55.9219 40.2727C55.5213 40.2727 55.1747 40.3722 54.8821 40.571C54.5923 40.767 54.3693 41.0227 54.2131 41.3381C54.0568 41.6534 53.9787 41.9915 53.9787 42.3523V42.9318C53.9787 43.4261 54.0639 43.8452 54.2344 44.1889C54.4077 44.5298 54.6477 44.7898 54.9545 44.9688C55.2614 45.1449 55.6179 45.233 56.0241 45.233C56.2884 45.233 56.527 45.196 56.7401 45.1222C56.956 45.0455 57.142 44.9318 57.2983 44.7812C57.4545 44.6278 57.5753 44.4375 57.6605 44.2102L58.6321 44.483C58.5298 44.8125 58.358 45.1023 58.1165 45.3523C57.875 45.5994 57.5767 45.7926 57.2216 45.9318C56.8665 46.0682 56.4673 46.1364 56.0241 46.1364ZM61.2699 42.0625V46H60.2642V39.4545H61.2358V40.4773H61.321C61.4744 40.1449 61.7074 39.8778 62.0199 39.6761C62.3324 39.4716 62.7358 39.3693 63.2301 39.3693C63.6733 39.3693 64.0611 39.4602 64.3935 39.642C64.7259 39.821 64.9844 40.0938 65.169 40.4602C65.3537 40.8239 65.446 41.2841 65.446 41.8409V46H64.4403V41.9091C64.4403 41.3949 64.3068 40.9943 64.0398 40.7074C63.7727 40.4176 63.4063 40.2727 62.9403 40.2727C62.6193 40.2727 62.3324 40.3423 62.0795 40.4815C61.8295 40.6207 61.6321 40.8239 61.4872 41.0909C61.3423 41.358 61.2699 41.6818 61.2699 42.0625ZM70.1303 39.4545V40.3068H66.7383V39.4545H70.1303ZM67.7269 37.8864H68.7326V44.125C68.7326 44.4091 68.7738 44.6222 68.8562 44.7642C68.9414 44.9034 69.0494 44.9972 69.18 45.0455C69.3136 45.0909 69.4542 45.1136 69.6019 45.1136C69.7127 45.1136 69.8036 45.108 69.8746 45.0966C69.9457 45.0824 70.0025 45.071 70.0451 45.0625L70.2496 45.9659C70.1815 45.9915 70.0863 46.017 69.9641 46.0426C69.842 46.071 69.6871 46.0852 69.4996 46.0852C69.2156 46.0852 68.9371 46.0241 68.6644 45.902C68.3945 45.7798 68.1701 45.5938 67.9911 45.3438C67.815 45.0938 67.7269 44.7784 67.7269 44.3977V37.8864ZM73.5692 46.1534C73.1545 46.1534 72.7781 46.0753 72.44 45.919C72.1019 45.7599 71.8335 45.5312 71.6346 45.233C71.4357 44.9318 71.3363 44.5682 71.3363 44.142C71.3363 43.767 71.4102 43.4631 71.5579 43.2301C71.7056 42.9943 71.9031 42.8097 72.1502 42.6761C72.3974 42.5426 72.6701 42.4432 72.9684 42.3778C73.2695 42.3097 73.5721 42.2557 73.8761 42.2159C74.2738 42.1648 74.5962 42.1264 74.8434 42.1009C75.0934 42.0724 75.2752 42.0256 75.3888 41.9602C75.5053 41.8949 75.5636 41.7812 75.5636 41.6193V41.5852C75.5636 41.1648 75.4485 40.8381 75.2184 40.6051C74.9911 40.3722 74.646 40.2557 74.1829 40.2557C73.7028 40.2557 73.3263 40.3608 73.0536 40.571C72.7809 40.7812 72.5891 41.0057 72.4783 41.2443L71.5238 40.9034C71.6942 40.5057 71.9215 40.196 72.2056 39.9744C72.4925 39.75 72.805 39.5937 73.1431 39.5057C73.484 39.4148 73.8192 39.3693 74.1488 39.3693C74.359 39.3693 74.6005 39.3949 74.8732 39.446C75.1488 39.4943 75.4144 39.5952 75.6701 39.7486C75.9286 39.902 76.1431 40.1335 76.3136 40.4432C76.484 40.7528 76.5692 41.1676 76.5692 41.6875V46H75.5636V45.1136H75.5124C75.4442 45.2557 75.3306 45.4077 75.1715 45.5696C75.0124 45.7315 74.8008 45.8693 74.5366 45.983C74.2724 46.0966 73.9499 46.1534 73.5692 46.1534ZM73.7227 45.25C74.1204 45.25 74.4556 45.1719 74.7283 45.0156C75.0039 44.8594 75.2113 44.6577 75.3505 44.4105C75.4925 44.1634 75.5636 43.9034 75.5636 43.6307V42.7102C75.521 42.7614 75.4272 42.8082 75.2823 42.8509C75.1403 42.8906 74.9755 42.9261 74.788 42.9574C74.6033 42.9858 74.4229 43.0114 74.2468 43.0341C74.0735 43.054 73.9329 43.071 73.8249 43.0852C73.5636 43.1193 73.3192 43.1747 73.092 43.2514C72.8675 43.3253 72.6857 43.4375 72.5465 43.5881C72.4102 43.7358 72.342 43.9375 72.342 44.1932C72.342 44.5426 72.4712 44.8068 72.7298 44.9858C72.9911 45.1619 73.3221 45.25 73.7227 45.25ZM79.4105 37.2727V46H78.4048V37.2727H79.4105ZM89.5366 39.4545C89.4854 39.0227 89.2781 38.6875 88.9144 38.4489C88.5508 38.2102 88.1048 38.0909 87.5763 38.0909C87.19 38.0909 86.8519 38.1534 86.5621 38.2784C86.2752 38.4034 86.0508 38.5753 85.8888 38.794C85.7298 39.0128 85.6502 39.2614 85.6502 39.5398C85.6502 39.7727 85.7056 39.973 85.8164 40.1406C85.93 40.3054 86.0749 40.4432 86.2511 40.554C86.4272 40.6619 86.6119 40.7514 86.805 40.8224C86.9982 40.8906 87.1758 40.946 87.3377 40.9886L88.2241 41.2273C88.4513 41.2869 88.7042 41.3693 88.9826 41.4744C89.2638 41.5795 89.5323 41.723 89.788 41.9048C90.0465 42.0838 90.2596 42.3139 90.4272 42.5952C90.5948 42.8764 90.6786 43.2216 90.6786 43.6307C90.6786 44.1023 90.555 44.5284 90.3079 44.9091C90.0636 45.2898 89.7056 45.5923 89.234 45.8168C88.7653 46.0412 88.1957 46.1534 87.5252 46.1534C86.9002 46.1534 86.359 46.0526 85.9016 45.8509C85.4471 45.6491 85.0891 45.3679 84.8278 45.0071C84.5692 44.6463 84.4229 44.2273 84.3888 43.75H85.4798C85.5082 44.0795 85.619 44.3523 85.8121 44.5682C86.0082 44.7812 86.2553 44.9403 86.5536 45.0455C86.8548 45.1477 87.1786 45.1989 87.5252 45.1989C87.9286 45.1989 88.2908 45.1335 88.6119 45.0028C88.9329 44.8693 89.1871 44.6847 89.3746 44.4489C89.5621 44.2102 89.6559 43.9318 89.6559 43.6136C89.6559 43.3239 89.5749 43.0881 89.413 42.9062C89.2511 42.7244 89.038 42.5767 88.7738 42.4631C88.5096 42.3494 88.2241 42.25 87.9173 42.1648L86.8434 41.858C86.1616 41.6619 85.6218 41.3821 85.2241 41.0185C84.8263 40.6548 84.6275 40.179 84.6275 39.5909C84.6275 39.1023 84.7596 38.6761 85.0238 38.3125C85.2908 37.946 85.6488 37.6619 86.0977 37.4602C86.5494 37.2557 87.0536 37.1534 87.6104 37.1534C88.1729 37.1534 88.6729 37.2543 89.1104 37.456C89.5479 37.6548 89.8945 37.9276 90.1502 38.2741C90.4087 38.6207 90.5451 39.0142 90.5593 39.4545H89.5366ZM94.9389 46.1364C94.348 46.1364 93.8295 45.9957 93.3835 45.7145C92.9403 45.4332 92.5938 45.0398 92.3438 44.5341C92.0966 44.0284 91.973 43.4375 91.973 42.7614C91.973 42.0795 92.0966 41.4844 92.3438 40.9759C92.5938 40.4673 92.9403 40.0724 93.3835 39.7912C93.8295 39.5099 94.348 39.3693 94.9389 39.3693C95.5298 39.3693 96.0469 39.5099 96.4901 39.7912C96.9361 40.0724 97.2827 40.4673 97.5298 40.9759C97.7798 41.4844 97.9048 42.0795 97.9048 42.7614C97.9048 43.4375 97.7798 44.0284 97.5298 44.5341C97.2827 45.0398 96.9361 45.4332 96.4901 45.7145C96.0469 45.9957 95.5298 46.1364 94.9389 46.1364ZM94.9389 45.233C95.3878 45.233 95.7571 45.1179 96.0469 44.8878C96.3366 44.6577 96.5511 44.3551 96.6903 43.9801C96.8295 43.6051 96.8991 43.1989 96.8991 42.7614C96.8991 42.3239 96.8295 41.9162 96.6903 41.5384C96.5511 41.1605 96.3366 40.8551 96.0469 40.6222C95.7571 40.3892 95.3878 40.2727 94.9389 40.2727C94.4901 40.2727 94.1207 40.3892 93.831 40.6222C93.5412 40.8551 93.3267 41.1605 93.1875 41.5384C93.0483 41.9162 92.9787 42.3239 92.9787 42.7614C92.9787 43.1989 93.0483 43.6051 93.1875 43.9801C93.3267 44.3551 93.5412 44.6577 93.831 44.8878C94.1207 45.1179 94.4901 45.233 94.9389 45.233ZM100.446 37.2727V46H99.44V37.2727H100.446ZM106.413 43.3239V39.4545H107.418V46H106.413V44.892H106.344C106.191 45.2244 105.952 45.5071 105.629 45.7401C105.305 45.9702 104.896 46.0852 104.401 46.0852C103.992 46.0852 103.629 45.9957 103.31 45.8168C102.992 45.6349 102.742 45.3622 102.56 44.9986C102.379 44.6321 102.288 44.1705 102.288 43.6136V39.4545H103.293V43.5455C103.293 44.0227 103.427 44.4034 103.694 44.6875C103.964 44.9716 104.308 45.1136 104.725 45.1136C104.975 45.1136 105.229 45.0497 105.488 44.9219C105.749 44.794 105.968 44.598 106.144 44.3338C106.323 44.0696 106.413 43.733 106.413 43.3239ZM112.107 39.4545V40.3068H108.715V39.4545H112.107ZM109.703 37.8864H110.709V44.125C110.709 44.4091 110.75 44.6222 110.833 44.7642C110.918 44.9034 111.026 44.9972 111.157 45.0455C111.29 45.0909 111.431 45.1136 111.578 45.1136C111.689 45.1136 111.78 45.108 111.851 45.0966C111.922 45.0824 111.979 45.071 112.022 45.0625L112.226 45.9659C112.158 45.9915 112.063 46.017 111.941 46.0426C111.819 46.071 111.664 46.0852 111.476 46.0852C111.192 46.0852 110.914 46.0241 110.641 45.902C110.371 45.7798 110.147 45.5938 109.968 45.3438C109.792 45.0938 109.703 44.7784 109.703 44.3977V37.8864ZM113.62 46V39.4545H114.625V46H113.62ZM114.131 38.3636C113.935 38.3636 113.766 38.2969 113.624 38.1634C113.485 38.0298 113.415 37.8693 113.415 37.6818C113.415 37.4943 113.485 37.3338 113.624 37.2003C113.766 37.0668 113.935 37 114.131 37C114.327 37 114.495 37.0668 114.634 37.2003C114.776 37.3338 114.847 37.4943 114.847 37.6818C114.847 37.8693 114.776 38.0298 114.634 38.1634C114.495 38.2969 114.327 38.3636 114.131 38.3636ZM119.126 46.1364C118.536 46.1364 118.017 45.9957 117.571 45.7145C117.128 45.4332 116.781 45.0398 116.531 44.5341C116.284 44.0284 116.161 43.4375 116.161 42.7614C116.161 42.0795 116.284 41.4844 116.531 40.9759C116.781 40.4673 117.128 40.0724 117.571 39.7912C118.017 39.5099 118.536 39.3693 119.126 39.3693C119.717 39.3693 120.234 39.5099 120.678 39.7912C121.124 40.0724 121.47 40.4673 121.717 40.9759C121.967 41.4844 122.092 42.0795 122.092 42.7614C122.092 43.4375 121.967 44.0284 121.717 44.5341C121.47 45.0398 121.124 45.4332 120.678 45.7145C120.234 45.9957 119.717 46.1364 119.126 46.1364ZM119.126 45.233C119.575 45.233 119.945 45.1179 120.234 44.8878C120.524 44.6577 120.739 44.3551 120.878 43.9801C121.017 43.6051 121.087 43.1989 121.087 42.7614C121.087 42.3239 121.017 41.9162 120.878 41.5384C120.739 41.1605 120.524 40.8551 120.234 40.6222C119.945 40.3892 119.575 40.2727 119.126 40.2727C118.678 40.2727 118.308 40.3892 118.018 40.6222C117.729 40.8551 117.514 41.1605 117.375 41.5384C117.236 41.9162 117.166 42.3239 117.166 42.7614C117.166 43.1989 117.236 43.6051 117.375 43.9801C117.514 44.3551 117.729 44.6577 118.018 44.8878C118.308 45.1179 118.678 45.233 119.126 45.233ZM124.633 42.0625V46H123.627V39.4545H124.599V40.4773H124.684C124.838 40.1449 125.071 39.8778 125.383 39.6761C125.696 39.4716 126.099 39.3693 126.593 39.3693C127.037 39.3693 127.424 39.4602 127.757 39.642C128.089 39.821 128.348 40.0938 128.532 40.4602C128.717 40.8239 128.809 41.2841 128.809 41.8409V46H127.804V41.9091C127.804 41.3949 127.67 40.9943 127.403 40.7074C127.136 40.4176 126.77 40.2727 126.304 40.2727C125.983 40.2727 125.696 40.3423 125.443 40.4815C125.193 40.6207 124.995 40.8239 124.85 41.0909C124.706 41.358 124.633 41.6818 124.633 42.0625ZM135.283 40.9205L134.38 41.1761C134.323 41.0256 134.239 40.8793 134.129 40.7372C134.021 40.5923 133.873 40.473 133.685 40.3793C133.498 40.2855 133.258 40.2386 132.965 40.2386C132.565 40.2386 132.231 40.331 131.964 40.5156C131.7 40.6974 131.567 40.929 131.567 41.2102C131.567 41.4602 131.658 41.6577 131.84 41.8026C132.022 41.9474 132.306 42.0682 132.692 42.1648L133.664 42.4034C134.249 42.5455 134.685 42.7628 134.972 43.0554C135.259 43.3452 135.403 43.7187 135.403 44.1761C135.403 44.5511 135.295 44.8864 135.079 45.1818C134.866 45.4773 134.567 45.7102 134.184 45.8807C133.8 46.0511 133.354 46.1364 132.846 46.1364C132.178 46.1364 131.626 45.9915 131.188 45.7017C130.751 45.4119 130.474 44.9886 130.357 44.4318L131.312 44.1932C131.403 44.5455 131.575 44.8097 131.827 44.9858C132.083 45.1619 132.417 45.25 132.829 45.25C133.298 45.25 133.67 45.1506 133.945 44.9517C134.224 44.75 134.363 44.5085 134.363 44.2273C134.363 44 134.283 43.8097 134.124 43.6562C133.965 43.5 133.721 43.3835 133.391 43.3068L132.3 43.0511C131.701 42.9091 131.261 42.6889 130.979 42.3906C130.701 42.0895 130.562 41.7131 130.562 41.2614C130.562 40.892 130.665 40.5653 130.873 40.2812C131.083 39.9972 131.369 39.7741 131.729 39.6122C132.093 39.4503 132.505 39.3693 132.965 39.3693C133.613 39.3693 134.121 39.5114 134.491 39.7955C134.863 40.0795 135.127 40.4545 135.283 40.9205ZM140.428 46V37.2727H143.377C144.061 37.2727 144.621 37.3963 145.056 37.6435C145.493 37.8878 145.817 38.2188 146.027 38.6364C146.238 39.054 146.343 39.5199 146.343 40.0341C146.343 40.5483 146.238 41.0156 146.027 41.4361C145.82 41.8565 145.499 42.1918 145.064 42.4418C144.63 42.6889 144.073 42.8125 143.394 42.8125H141.28V41.875H143.36C143.828 41.875 144.205 41.794 144.489 41.6321C144.773 41.4702 144.979 41.2514 145.107 40.9759C145.238 40.6974 145.303 40.3835 145.303 40.0341C145.303 39.6847 145.238 39.3722 145.107 39.0966C144.979 38.821 144.772 38.6051 144.485 38.4489C144.198 38.2898 143.817 38.2102 143.343 38.2102H141.485V46H140.428ZM153.261 39.4545L150.841 46H149.818L147.397 39.4545H148.488L150.295 44.6705H150.363L152.17 39.4545H153.261ZM157.435 39.4545V40.3068H154.043V39.4545H157.435ZM155.032 37.8864H156.037V44.125C156.037 44.4091 156.078 44.6222 156.161 44.7642C156.246 44.9034 156.354 44.9972 156.485 45.0455C156.618 45.0909 156.759 45.1136 156.907 45.1136C157.017 45.1136 157.108 45.108 157.179 45.0966C157.25 45.0824 157.307 45.071 157.35 45.0625L157.554 45.9659C157.486 45.9915 157.391 46.017 157.269 46.0426C157.147 46.071 156.992 46.0852 156.804 46.0852C156.52 46.0852 156.242 46.0241 155.969 45.902C155.699 45.7798 155.475 45.5938 155.296 45.3438C155.12 45.0938 155.032 44.7784 155.032 44.3977V37.8864ZM159.681 46.0682C159.471 46.0682 159.29 45.9929 159.14 45.8423C158.989 45.6918 158.914 45.5114 158.914 45.3011C158.914 45.0909 158.989 44.9105 159.14 44.7599C159.29 44.6094 159.471 44.5341 159.681 44.5341C159.891 44.5341 160.071 44.6094 160.222 44.7599C160.373 44.9105 160.448 45.0909 160.448 45.3011C160.448 45.4403 160.412 45.5682 160.341 45.6847C160.273 45.8011 160.181 45.8949 160.064 45.9659C159.951 46.0341 159.823 46.0682 159.681 46.0682ZM165.764 46V37.2727H166.821V45.0625H170.877V46H165.764ZM174.955 39.4545V40.3068H171.562V39.4545H174.955ZM172.551 37.8864H173.557V44.125C173.557 44.4091 173.598 44.6222 173.68 44.7642C173.766 44.9034 173.874 44.9972 174.004 45.0455C174.138 45.0909 174.278 45.1136 174.426 45.1136C174.537 45.1136 174.628 45.108 174.699 45.0966C174.77 45.0824 174.827 45.071 174.869 45.0625L175.074 45.9659C175.006 45.9915 174.911 46.017 174.788 46.0426C174.666 46.071 174.511 46.0852 174.324 46.0852C174.04 46.0852 173.761 46.0241 173.489 45.902C173.219 45.7798 172.994 45.5938 172.815 45.3438C172.639 45.0938 172.551 44.7784 172.551 44.3977V37.8864ZM178.869 46.1364C178.323 46.1364 177.842 45.9986 177.424 45.723C177.006 45.4446 176.68 45.0526 176.444 44.5469C176.208 44.0384 176.09 43.4375 176.09 42.7443C176.09 42.0568 176.208 41.4602 176.444 40.9545C176.68 40.4489 177.008 40.0582 177.428 39.7827C177.849 39.5071 178.335 39.3693 178.886 39.3693C179.312 39.3693 179.648 39.4403 179.896 39.5824C180.146 39.7216 180.336 39.8807 180.467 40.0597C180.6 40.2358 180.704 40.3807 180.778 40.4943H180.863V37.2727H181.869V46H180.897V44.9943H180.778C180.704 45.1136 180.599 45.2642 180.462 45.446C180.326 45.625 180.131 45.7855 179.879 45.9276C179.626 46.0668 179.289 46.1364 178.869 46.1364ZM179.005 45.233C179.408 45.233 179.749 45.1278 180.028 44.9176C180.306 44.7045 180.518 44.4105 180.663 44.0355C180.808 43.6577 180.88 43.2216 180.88 42.7273C180.88 42.2386 180.809 41.8111 180.667 41.4446C180.525 41.0753 180.315 40.7884 180.036 40.5838C179.758 40.3764 179.414 40.2727 179.005 40.2727C178.579 40.2727 178.224 40.3821 177.94 40.6009C177.658 40.8168 177.447 41.1108 177.305 41.483C177.165 41.8523 177.096 42.267 177.096 42.7273C177.096 43.1932 177.167 43.6165 177.309 43.9972C177.454 44.375 177.667 44.6761 177.948 44.9006C178.232 45.1222 178.585 45.233 179.005 45.233ZM184.583 46.0682C184.373 46.0682 184.192 45.9929 184.042 45.8423C183.891 45.6918 183.816 45.5114 183.816 45.3011C183.816 45.0909 183.891 44.9105 184.042 44.7599C184.192 44.6094 184.373 44.5341 184.583 44.5341C184.793 44.5341 184.974 44.6094 185.124 44.7599C185.275 44.9105 185.35 45.0909 185.35 45.3011C185.35 45.4403 185.315 45.5682 185.244 45.6847C185.175 45.8011 185.083 45.8949 184.967 45.9659C184.853 46.0341 184.725 46.0682 184.583 46.0682Z" fill="black"/>
</svg>
