<svg width="159" height="160" viewBox="0 0 159 160" fill="none" xmlns="http://www.w3.org/2000/svg">
<g clip-path="url(#clip0_33_8)">
<path d="M112.8 149.957C114.512 149.843 116.225 149.615 117.823 149.386C119.535 149.044 121.247 148.588 122.96 148.131C124.329 148.017 125.585 147.332 127.069 146.876C128.325 146.533 129.58 145.849 130.95 145.278C132.092 144.593 133.347 143.794 134.603 143.224C135.744 142.425 137.114 141.626 138.256 140.599C139.055 140.028 140.082 139.344 140.881 138.431C141.909 137.746 142.708 136.719 143.507 135.92C144.42 135.007 145.333 134.094 145.904 133.067C146.931 131.697 147.844 130.784 148.415 129.643C149.442 128.045 150.242 126.562 151.041 125.078C151.725 123.481 152.182 122.453 152.753 120.856C153.324 119.258 153.837 116.633 154.18 114.921C153.495 114.921 151.725 114.921 150.013 114.921C148.301 114.921 146.589 114.921 144.876 114.921C143.164 114.921 141.452 114.921 139.74 114.921C138.027 114.921 136.315 114.921 134.603 114.921C132.891 114.921 131.178 114.921 129.466 114.921C127.754 114.921 126.042 114.921 124.329 114.921C122.617 114.921 120.905 114.921 119.193 114.921C117.48 114.921 115.768 114.921 114.056 114.921C112.344 114.921 110.631 114.921 108.919 114.921C107.207 114.921 105.495 114.921 103.782 114.921C102.07 114.921 100.358 114.921 98.6456 114.921C96.9333 114.921 95.2211 114.921 93.5088 114.921C91.7965 114.921 90.0843 114.921 88.372 114.921C86.6598 114.921 84.9475 114.921 83.2353 114.921C81.523 114.921 79.8108 114.921 78.0985 114.921C76.3863 114.921 74.674 114.921 72.9617 114.921C71.2495 114.921 69.5372 114.921 67.825 114.921C66.1127 114.921 64.4005 114.921 62.6882 114.921C60.976 114.921 59.2637 114.921 57.5514 114.921C55.8392 114.921 54.1269 114.921 52.4147 114.921C50.7024 114.921 48.9902 114.921 47.2779 114.921C45.5657 114.921 43.8534 114.921 42.1412 115.035C40.4289 115.035 38.9449 115.264 37.2327 115.606C35.7487 115.948 34.2648 116.291 32.5525 116.861C31.411 116.976 29.9271 117.66 29.0139 118.117C27.4158 118.802 26.1601 119.486 25.0186 119.829C24.2196 120.399 23.5346 120.856 22.1648 121.54C21.0233 122.339 20.4526 122.91 19.4252 123.481C18.3979 124.508 17.4847 125.307 16.3432 126.334C15.6583 127.018 14.6309 128.045 13.4894 129.301C12.5762 130.442 11.663 131.469 10.5215 133.067C9.72246 134.436 8.80926 135.92 8.0102 137.518C7.66775 138.202 6.98285 139.914 6.29795 141.626C5.84135 142.767 5.38475 144.251 5.0423 145.963C4.58569 147.675 4.35739 149.386 5.61305 149.843C7.3253 149.843 9.03756 149.843 10.7498 149.957C12.4621 149.843 14.1743 149.843 15.8866 149.843C17.5988 149.843 19.3111 149.957 21.0233 149.843C22.7356 149.843 24.4479 149.843 26.1601 149.843C27.8724 149.843 29.5846 149.843 31.2969 149.843C33.0091 149.843 34.7214 149.957 36.4336 149.843C38.1459 149.843 39.8581 149.957 41.5704 149.843C43.2827 149.843 44.9949 149.843 46.7072 149.843C48.4194 149.843 50.1317 149.957 51.8439 149.843C53.5562 149.843 55.2684 149.957 56.9807 149.957C58.693 149.957 60.4052 149.957 62.1175 149.843C63.8297 149.957 65.542 149.843 67.2542 149.957C68.9665 149.843 70.6787 149.843 72.391 149.957C74.1032 149.957 75.8155 149.957 77.5278 149.957C79.24 149.957 80.9523 149.843 82.6645 149.843C84.3768 149.957 86.089 149.957 87.8013 149.957C89.5135 149.957 91.2258 149.843 92.9381 149.843C94.6503 149.843 96.3626 149.843 98.0748 149.843C99.7871 149.843 101.499 149.957 103.212 149.957C104.924 149.957 106.636 149.843 108.348 149.957H112.8Z" fill="#4A7C59" style="mix-blend-mode:darken"/>
<path d="M154.158 105.342C154.207 106.249 154.158 107.848 154.158 109.045L152.849 108.133C152.455 107.893 151.548 107.05 151.193 106.831C150.535 106.425 149.913 106.042 149.22 105.634C148.367 105.015 147.601 104.547 146.69 103.99C146.343 103.778 145.974 103.553 145.572 103.302C145.015 103.038 144.483 102.774 143.959 102.515C142.898 101.989 141.871 101.481 140.744 101.023C139.285 100.454 137.601 99.8839 135.917 99.3143C134.345 98.8586 132.661 98.4028 130.977 98.0611C129.293 97.6054 127.722 97.3775 126.038 97.2636C124.578 96.9218 123.119 96.6939 121.435 96.6939C119.751 96.58 118.067 96.58 116.383 96.58C115.541 96.5231 114.699 96.5231 113.857 96.5231C113.015 96.5231 112.173 96.5231 111.331 96.4661C109.647 96.58 107.963 96.58 106.279 96.58C105.298 96.6566 104.215 96.6302 103.168 96.6047C102.657 96.5923 102.154 96.58 101.676 96.58H96.8486C95.8589 96.5028 94.7658 96.5303 93.7446 96.556C93.26 96.5682 92.7916 96.58 92.358 96.58C90.8986 96.58 89.2146 96.58 87.5306 96.6939C86.0711 96.58 84.6117 96.4661 82.9277 96.4661C81.2437 96.58 80.1211 96.58 78.4371 96.58H73.3852H68.3332H63.9549C63.5213 96.58 63.0761 96.5682 62.6156 96.556C61.6451 96.5303 60.6063 96.5028 59.4643 96.58C58.6223 96.5231 57.7803 96.5231 57.0365 96.5231C56.2928 96.5231 55.6473 96.5231 55.1982 96.4661C54.3562 96.5231 53.5142 96.5231 52.6722 96.5231C51.8302 96.5231 50.9882 96.5231 50.1463 96.58C49.3043 96.58 48.4623 96.5231 47.6203 96.4661C46.7783 96.4091 45.9363 96.3522 45.0943 96.3522C43.4103 96.1243 41.7264 95.8965 40.1546 95.5547C38.6952 95.3268 37.1235 94.9851 35.664 94.5293C34.4525 94.3402 33.241 93.837 31.901 93.2805C31.6268 93.1666 31.3472 93.0505 31.0612 92.9344C30.5628 92.7045 29.9912 92.4189 29.3982 92.1226C28.5219 91.6848 27.5985 91.2234 26.7951 90.8837C25.701 90.0762 24.9593 89.6264 24.0237 89.059C23.9033 88.9859 23.7796 88.911 23.6516 88.833C22.9103 88.2688 22.202 87.7729 21.5661 87.3277L21.5646 87.3266C21.0459 86.9634 20.5747 86.6336 20.1714 86.3266C19.2733 85.3013 18.2629 84.3899 17.028 83.3645C16.4667 82.567 15.9053 81.9974 14.895 81.086C14.3336 80.1746 13.4355 78.9214 12.4251 77.6682C11.4147 76.1872 10.4043 74.7061 9.73075 72.9972C8.94494 71.7441 8.27136 70.0353 7.59779 68.3265C7.03646 66.9593 6.47506 65.2502 6.026 63.5413C5.6892 61.9463 5.35241 60.3514 5.12788 58.6425C4.90335 56.9336 4.67882 55.2247 4.67882 53.5158C4.67882 50.677 4.67881 50.6676 6.36279 51.6929C6.87767 52.0064 7.29807 52.3199 7.68901 52.6114C8.15051 52.9556 8.57094 53.2691 9.05716 53.5158C10.4043 54.5411 11.527 55.2247 12.6496 55.9082C13.0372 56.1049 13.4248 56.2921 13.8097 56.478C14.7627 56.9384 15.6993 57.3908 16.5789 57.9589C17.3968 58.2143 18.2851 58.5412 19.2045 58.8795C19.9257 59.1449 20.666 59.4174 21.4063 59.6678C23.0903 60.2374 24.7743 60.6931 26.4583 61.1488C28.1423 61.4906 29.8262 61.8324 31.0612 62.0603C31.6225 62.1362 32.1838 62.2248 32.7451 62.3134C33.8678 62.4907 34.9904 62.6679 36.1131 62.7438C37.7971 62.8577 39.481 62.9717 41.165 62.9717H46.217H51.2689H56.3208H61.3728H66.4247H71.4767H76.5286H81.5805H86.6325H91.6844H96.7364H101.788H106.84C108.524 62.9717 110.208 62.9717 111.78 63.1995L116.832 63.5413L121.322 64.4527C121.666 64.5522 122.014 64.6463 122.365 64.7409C123.619 65.0794 124.897 65.4243 126.038 66.0477C127.273 66.5034 128.732 67.187 130.191 67.9844C130.987 68.2536 131.704 68.6817 132.413 69.1044C132.904 69.3975 133.391 69.688 133.896 69.9212C135.019 70.6048 136.141 71.2883 137.152 72.4276C137.925 72.9981 138.61 73.6134 139.345 74.2732C139.784 74.6674 140.241 75.0775 140.744 75.5036C141.979 76.7568 142.99 77.7821 143.663 78.5796C144.561 79.8328 145.459 81.086 146.358 82.2253C146.608 82.6494 146.89 83.1051 147.192 83.5924C147.7 84.414 148.264 85.3254 148.827 86.3266C149.052 86.8203 149.277 87.3267 149.501 87.833C149.95 88.8457 150.399 89.8584 150.848 90.7698C151.01 91.2621 151.181 91.7449 151.351 92.2238C151.77 93.4071 152.18 94.5659 152.42 95.7825C152.56 96.3147 152.705 96.8342 152.849 97.3489C153.167 98.487 153.605 99.5372 153.837 100.714C154.272 102.312 154.065 102.255 154.158 103.302C154.158 103.907 154.132 104.859 154.158 105.342Z" fill="#1A4A6B"/>
<path d="M112.826 45.1934C114.538 45.0792 116.249 44.851 117.846 44.6227C119.557 44.2804 121.268 43.8239 122.979 43.3674C124.348 43.2533 125.603 42.5685 127.086 42.112C128.341 41.7697 129.596 41.0849 130.965 40.5143C132.106 39.8296 133.36 39.0307 134.615 38.4601C135.756 37.6613 137.125 36.8624 138.266 35.8353C139.064 35.2647 140.091 34.58 140.89 33.667C141.916 32.9822 142.715 31.9551 143.513 31.1563C144.426 30.2433 145.339 29.3303 145.909 28.3032C146.936 26.9337 147.848 26.0207 148.419 24.8795C149.445 23.2818 150.244 21.7982 151.043 20.3146C151.727 18.7169 152.183 17.6898 152.754 16.0921C153.324 14.4944 153.837 11.8695 154.18 10.1577C153.495 10.1577 151.727 10.1577 150.016 10.1577C148.305 10.1577 146.594 10.1577 144.882 10.1577C143.171 10.1577 141.46 10.1577 139.749 10.1577C138.038 10.1577 136.327 10.1577 134.615 10.1577C132.904 10.1577 131.193 10.1577 129.482 10.1577C127.771 10.1577 126.06 10.1577 124.348 10.1577C122.637 10.1577 120.926 10.1577 119.215 10.1577C117.504 10.1577 115.793 10.1577 114.081 10.1577C112.37 10.1577 110.659 10.1577 108.948 10.1577C107.237 10.1577 105.526 10.1577 103.814 10.1577C102.103 10.1577 100.392 10.1577 98.6808 10.1577C96.9697 10.1577 95.2585 10.1577 93.5473 10.1577C91.8362 10.1577 90.125 10.1577 88.4138 10.1577C86.7027 10.1577 84.9915 10.1577 83.2803 10.1577C81.5692 10.1577 79.858 10.1577 78.1468 10.1577C76.4357 10.1577 74.7245 10.1577 73.0133 10.1577C71.3021 10.1577 69.591 10.1577 67.8798 10.1577C66.1686 10.1577 64.4575 10.1577 62.7463 10.1577C61.0351 10.1577 59.324 10.1577 57.6128 10.1577C55.9016 10.1577 54.1905 10.1577 52.4793 10.1577C50.7681 10.1577 49.057 10.1577 47.3458 10.1577C45.6346 10.1577 43.9235 10.1577 42.2123 10.2718C40.5011 10.2718 39.0181 10.5001 37.307 10.8424C35.8239 11.1848 34.3409 11.5272 32.6298 12.0978C31.489 12.2119 30.006 12.8966 29.0933 13.3531C27.4963 14.0379 26.2414 14.7226 25.1006 15.065C24.3021 15.6356 23.6176 16.0921 22.2487 16.7768C21.1079 17.5757 20.5375 18.1463 19.5108 18.7169C18.4841 19.744 17.5715 20.5429 16.4307 21.57C15.7462 22.2547 14.7195 23.2818 13.5788 24.5372C12.6661 25.6784 11.7535 26.7055 10.6127 28.3032C9.81419 29.6727 8.90157 31.1563 8.10302 32.754C7.76079 33.4387 7.07632 35.1506 6.39186 36.8624C5.93554 38.0036 5.47923 39.4872 5.137 41.1991C4.45253 45.0792 4.45253 45.0792 5.70739 45.0792C7.41856 45.0792 9.12972 44.9651 10.8409 45.0792C12.5521 44.9651 14.2632 45.0792 15.9744 45.0792C17.6856 45.0792 19.3967 45.1934 21.1079 45.0792C22.8191 45.0792 24.5302 45.0792 26.2414 45.0792C27.9526 45.0792 29.6637 45.0792 31.3749 45.0792C33.0861 45.0792 34.7972 45.1934 36.5084 45.0792C38.2196 45.0792 39.9307 45.1934 41.6419 45.0792C43.3531 45.0792 45.0642 45.0792 46.7754 45.0792C48.4866 45.0792 50.1977 45.1934 51.9089 45.0792C53.6201 45.0792 55.3313 45.1934 57.0424 45.1934C58.7536 45.1934 60.4648 45.1934 62.1759 45.0792C63.8871 45.1934 65.5983 45.0792 67.3094 45.1934C69.0206 45.0792 70.7318 45.0792 72.4429 45.1934C74.1541 45.1934 75.8653 45.1934 77.5764 45.1934C79.2876 45.1934 80.9988 45.0792 82.7099 45.0792C84.4211 45.1934 86.1323 45.1934 87.8434 45.1934C89.5546 45.1934 91.2658 45.0792 92.9769 45.0792C94.6881 45.0792 96.3993 45.0792 98.1104 45.0792C99.8216 45.0792 101.533 45.1934 103.244 45.1934C104.955 45.1934 106.666 45.0792 108.377 45.1934H112.826Z" fill="#4A7C59" style="mix-blend-mode:darken"/>
</g>
<defs>
<clipPath id="clip0_33_8">
<rect width="158.859" height="160" fill="white" transform="matrix(-1 0 0 -1 158.859 160)"/>
</clipPath>
</defs>
</svg>
